solid /home/febert/Desktop/arm_base031
facet normal 0.000000 0.000000 1.000000
outer loop
vertex 0.087165 -0.494275 0.008323
vertex 0.087165 0.043259 0.008323
vertex 0.085165 0.043259 0.008323
endloop
endfacet
facet normal 0.000000 -1.000000 -0.000002
outer loop
vertex 0.085165 -0.494275 -0.044477
vertex 0.105113 -0.494275 -0.044477
vertex 0.087165 -0.494275 0.008323
endloop
endfacet
facet normal 0.942882 0.000000 0.333126
outer loop
vertex 0.105113 -0.378498 -0.042477
vertex 0.087165 0.043259 0.008323
vertex 0.087165 -0.494275 0.008323
endloop
endfacet
facet normal 0.000000 -1.000000 0.000000
outer loop
vertex 0.085165 -0.494275 0.008323
vertex 0.085165 -0.494275 -0.044477
vertex 0.087165 -0.494275 0.008323
endloop
endfacet
facet normal 0.000000 0.000000 1.000000
outer loop
vertex 0.085165 -0.494275 0.008323
vertex 0.087165 -0.494275 0.008323
vertex 0.085165 0.043259 0.008323
endloop
endfacet
facet normal -1.000000 -0.000000 0.000000
outer loop
vertex 0.085165 -0.494275 0.008323
vertex 0.085165 0.043259 0.008323
vertex 0.085165 -0.494275 -0.044477
endloop
endfacet
facet normal 0.942882 0.000000 0.333126
outer loop
vertex 0.105113 -0.494275 -0.042477
vertex 0.105113 -0.378498 -0.042477
vertex 0.087165 -0.494275 0.008323
endloop
endfacet
facet normal 0.000000 -1.000000 0.000000
outer loop
vertex 0.105113 -0.494275 -0.042477
vertex 0.087165 -0.494275 0.008323
vertex 0.105113 -0.494275 -0.044477
endloop
endfacet
facet normal 0.000000 -0.000000 -1.000000
outer loop
vertex 0.085165 0.043259 -0.044477
vertex 0.105113 -0.494275 -0.044477
vertex 0.085165 -0.494275 -0.044477
endloop
endfacet
facet normal -1.000000 0.000000 0.000000
outer loop
vertex 0.085165 0.043259 -0.044477
vertex 0.085165 -0.494275 -0.044477
vertex 0.085165 0.043259 0.008323
endloop
endfacet
facet normal 0.000000 1.000000 0.000000
outer loop
vertex 0.085165 0.043259 -0.044477
vertex 0.085165 0.043259 0.008323
vertex 0.087165 0.043259 0.008323
endloop
endfacet
facet normal 0.000000 -0.000000 -1.000000
outer loop
vertex 0.096843 0.043259 -0.044477
vertex 0.105113 -0.494275 -0.044477
vertex 0.085165 0.043259 -0.044477
endloop
endfacet
facet normal 0.999808 0.019604 0.000000
outer loop
vertex 0.105113 -0.378498 -0.044477
vertex 0.096843 0.043259 -0.044477
vertex 0.105113 -0.378498 -0.042477
endloop
endfacet
facet normal 0.000008 -0.000000 -1.000000
outer loop
vertex 0.105113 -0.378498 -0.044477
vertex 0.105113 -0.494275 -0.044477
vertex 0.096843 0.043259 -0.044477
endloop
endfacet
facet normal 1.000000 0.000000 0.000000
outer loop
vertex 0.105113 -0.378498 -0.044477
vertex 0.105113 -0.494275 -0.042477
vertex 0.105113 -0.494275 -0.044477
endloop
endfacet
facet normal 1.000000 0.000000 0.000000
outer loop
vertex 0.105113 -0.378498 -0.044477
vertex 0.105113 -0.378498 -0.042477
vertex 0.105113 -0.494275 -0.042477
endloop
endfacet
facet normal 0.982149 0.019258 0.187114
outer loop
vertex 0.096843 0.043259 -0.042477
vertex 0.087165 0.043259 0.008323
vertex 0.105113 -0.378498 -0.042477
endloop
endfacet
facet normal 0.999808 0.019604 0.000000
outer loop
vertex 0.096843 0.043259 -0.042477
vertex 0.105113 -0.378498 -0.042477
vertex 0.096843 0.043259 -0.044477
endloop
endfacet
facet normal 0.000000 1.000000 0.000000
outer loop
vertex 0.096843 0.043259 -0.042477
vertex 0.096843 0.043259 -0.044477
vertex 0.085165 0.043259 -0.044477
endloop
endfacet
facet normal 0.000000 1.000000 -0.000000
outer loop
vertex 0.096843 0.043259 -0.042477
vertex 0.085165 0.043259 -0.044477
vertex 0.087165 0.043259 0.008323
endloop
endfacet
endsolid /home/febert/Desktop/arm_base031
