solid /home/febert/Desktop/arm_base053
facet normal 0.999888 0.014946 -0.000000
outer loop
vertex -0.199054 -0.037117 0.819458
vertex -0.199054 -0.037117 0.662332
vertex -0.200622 0.067785 0.819458
endloop
endfacet
facet normal 0.514986 -0.857199 0.000000
outer loop
vertex -0.220368 -0.049922 0.695412
vertex -0.199054 -0.037117 0.662332
vertex -0.199054 -0.037117 0.819458
endloop
endfacet
facet normal 0.000000 -0.994714 0.102682
outer loop
vertex -0.220368 -0.049922 0.695412
vertex -0.199054 -0.037117 0.819458
vertex -0.225677 -0.049922 0.695412
endloop
endfacet
facet normal -0.496640 -0.846016 0.193922
outer loop
vertex -0.219506 -0.025111 0.819458
vertex -0.225677 -0.049922 0.695412
vertex -0.199054 -0.037117 0.819458
endloop
endfacet
facet normal 0.000000 -0.949771 -0.312947
outer loop
vertex -0.207078 -0.030848 0.637523
vertex -0.220368 -0.049922 0.695412
vertex -0.225677 -0.049922 0.695412
endloop
endfacet
facet normal 0.131953 -0.950073 -0.282754
outer loop
vertex -0.207078 -0.030848 0.637523
vertex -0.199054 -0.037117 0.662332
vertex -0.220368 -0.049922 0.695412
endloop
endfacet
facet normal 0.014986 0.999888 -0.000000
outer loop
vertex -0.200622 0.067785 0.637523
vertex -0.219506 0.068068 0.637523
vertex -0.200622 0.067785 0.819458
endloop
endfacet
facet normal 0.999888 0.014946 -0.000000
outer loop
vertex -0.200622 0.067785 0.637523
vertex -0.200622 0.067785 0.819458
vertex -0.199054 -0.037117 0.662332
endloop
endfacet
facet normal 0.000000 0.000000 -1.000000
outer loop
vertex -0.200622 0.067785 0.637523
vertex -0.207078 -0.030848 0.637523
vertex -0.219506 0.068068 0.637523
endloop
endfacet
facet normal 0.944968 -0.061853 -0.321262
outer loop
vertex -0.200622 0.067785 0.637523
vertex -0.199054 -0.037117 0.662332
vertex -0.207078 -0.030848 0.637523
endloop
endfacet
facet normal -0.995658 0.006518 -0.092856
outer loop
vertex -0.225677 0.068068 0.703694
vertex -0.219506 0.068068 0.637523
vertex -0.225677 -0.049922 0.695412
endloop
endfacet
facet normal 0.007894 0.999969 0.000736
outer loop
vertex -0.225677 0.068068 0.703694
vertex -0.200622 0.067785 0.819458
vertex -0.219506 0.068068 0.637523
endloop
endfacet
facet normal -0.491225 -0.768028 -0.410891
outer loop
vertex -0.219506 -0.022899 0.637523
vertex -0.207078 -0.030848 0.637523
vertex -0.225677 -0.049922 0.695412
endloop
endfacet
facet normal -0.994366 0.000000 -0.106003
outer loop
vertex -0.219506 -0.022899 0.637523
vertex -0.225677 -0.049922 0.695412
vertex -0.219506 0.068068 0.637523
endloop
endfacet
facet normal 0.000000 0.000000 -1.000000
outer loop
vertex -0.219506 -0.022899 0.637523
vertex -0.219506 0.068068 0.637523
vertex -0.207078 -0.030848 0.637523
endloop
endfacet
facet normal -1.000000 0.000000 0.000000
outer loop
vertex -0.225677 -0.046922 0.703694
vertex -0.225677 0.068068 0.703694
vertex -0.225677 -0.049922 0.695412
endloop
endfacet
facet normal -0.950693 -0.291592 0.105621
outer loop
vertex -0.225677 -0.046922 0.703694
vertex -0.225677 -0.049922 0.695412
vertex -0.219506 -0.025111 0.819458
endloop
endfacet
facet normal -0.998582 0.000000 0.053232
outer loop
vertex -0.225677 -0.046922 0.703694
vertex -0.219506 -0.025111 0.819458
vertex -0.225677 0.068068 0.703694
endloop
endfacet
facet normal -0.998582 0.000000 0.053232
outer loop
vertex -0.219506 0.055970 0.819458
vertex -0.225677 0.068068 0.703694
vertex -0.219506 -0.025111 0.819458
endloop
endfacet
facet normal -0.526820 0.842013 0.116080
outer loop
vertex -0.219506 0.055970 0.819458
vertex -0.200622 0.067785 0.819458
vertex -0.225677 0.068068 0.703694
endloop
endfacet
facet normal 0.000002 0.000000 1.000000
outer loop
vertex -0.219506 0.055970 0.819458
vertex -0.219506 -0.025111 0.819458
vertex -0.199054 -0.037117 0.819458
endloop
endfacet
facet normal 0.000000 0.000000 1.000000
outer loop
vertex -0.219506 0.055970 0.819458
vertex -0.199054 -0.037117 0.819458
vertex -0.200622 0.067785 0.819458
endloop
endfacet
endsolid /home/febert/Desktop/arm_base053
