solid /home/febert/Desktop/arm_base060
facet normal 1.000000 0.000000 0.000000
outer loop
vertex 0.048896 0.171675 0.439049
vertex 0.048896 0.171675 0.356352
vertex 0.048896 0.299621 0.439049
endloop
endfacet
facet normal 0.000000 -1.000000 0.000000
outer loop
vertex -0.068552 0.171675 0.439049
vertex 0.048896 0.171675 0.356352
vertex 0.048896 0.171675 0.439049
endloop
endfacet
facet normal 0.000000 0.000000 1.000000
outer loop
vertex -0.068552 0.171675 0.439049
vertex 0.048896 0.171675 0.439049
vertex 0.048896 0.299621 0.439049
endloop
endfacet
facet normal -0.079167 0.072672 0.994209
outer loop
vertex -0.068552 0.171675 0.439049
vertex 0.048896 0.299621 0.439049
vertex -0.068552 0.299621 0.429697
endloop
endfacet
facet normal 1.000000 0.000000 0.000000
outer loop
vertex 0.048896 0.299621 0.356352
vertex 0.048896 0.299621 0.439049
vertex 0.048896 0.171675 0.356352
endloop
endfacet
facet normal 0.000000 1.000000 0.000000
outer loop
vertex 0.048896 0.299621 0.356352
vertex -0.068552 0.299621 0.429697
vertex 0.048896 0.299621 0.439049
endloop
endfacet
facet normal -1.000000 -0.000000 0.000000
outer loop
vertex -0.068552 0.171675 0.356352
vertex -0.068552 0.171675 0.439049
vertex -0.068552 0.299621 0.429697
endloop
endfacet
facet normal 0.000000 -1.000000 0.000000
outer loop
vertex -0.068552 0.171675 0.356352
vertex 0.048896 0.171675 0.356352
vertex -0.068552 0.171675 0.439049
endloop
endfacet
facet normal 0.000000 -0.000000 -1.000000
outer loop
vertex -0.068552 0.171675 0.356352
vertex 0.048896 0.299621 0.356352
vertex 0.048896 0.171675 0.356352
endloop
endfacet
facet normal -1.000000 0.000000 0.000000
outer loop
vertex -0.068552 0.299621 0.372618
vertex -0.068552 0.171675 0.356352
vertex -0.068552 0.299621 0.429697
endloop
endfacet
facet normal 0.000000 1.000000 0.000000
outer loop
vertex -0.068552 0.299621 0.372618
vertex -0.068552 0.299621 0.429697
vertex 0.048896 0.299621 0.356352
endloop
endfacet
facet normal 0.000000 1.000000 -0.000180
outer loop
vertex 0.046356 0.299621 0.356352
vertex -0.068552 0.299621 0.372618
vertex 0.048896 0.299621 0.356352
endloop
endfacet
facet normal 0.000000 -0.000000 -1.000000
outer loop
vertex 0.046356 0.299621 0.356352
vertex 0.048896 0.299621 0.356352
vertex -0.068552 0.171675 0.356352
endloop
endfacet
facet normal -0.000026 0.000000 -1.000000
outer loop
vertex -0.068552 0.174215 0.356352
vertex 0.046356 0.299621 0.356352
vertex -0.068552 0.171675 0.356352
endloop
endfacet
facet normal -1.000000 0.000000 0.000000
outer loop
vertex -0.068552 0.174215 0.356352
vertex -0.068552 0.171675 0.356352
vertex -0.068552 0.299621 0.372618
endloop
endfacet
facet normal -0.139020 0.127382 -0.982063
outer loop
vertex -0.068552 0.174215 0.356352
vertex -0.068552 0.299621 0.372618
vertex 0.046356 0.299621 0.356352
endloop
endfacet
endsolid /home/febert/Desktop/arm_base060
