solid /home/febert/Desktop/arm_base039
facet normal 0.985267 0.000234 -0.171021
outer loop
vertex -0.101631 -0.089057 0.644015
vertex -0.108120 -0.085600 0.606635
vertex -0.108072 0.114398 0.607185
endloop
endfacet
facet normal -0.059615 -0.998221 0.000000
outer loop
vertex -0.159519 -0.085600 0.596174
vertex -0.101631 -0.089057 0.644015
vertex -0.159519 -0.085600 0.637523
endloop
endfacet
facet normal -0.911597 0.408120 -0.049275
outer loop
vertex -0.166225 0.117880 0.596174
vertex -0.168994 0.111694 0.596173
vertex -0.167789 0.117687 0.623515
endloop
endfacet
facet normal 0.000320 0.000011 -1.000000
outer loop
vertex -0.166225 0.117880 0.596174
vertex -0.159519 -0.085600 0.596174
vertex -0.168994 0.111694 0.596173
endloop
endfacet
facet normal 0.059765 0.998212 0.000000
outer loop
vertex -0.166225 0.117880 0.596174
vertex -0.108072 0.114398 0.640845
vertex -0.108072 0.114398 0.607185
endloop
endfacet
facet normal 0.052080 0.998592 0.010034
outer loop
vertex -0.166225 0.117880 0.596174
vertex -0.167789 0.117687 0.623515
vertex -0.108072 0.114398 0.640845
endloop
endfacet
facet normal -0.979522 0.201333 -0.000962
outer loop
vertex -0.169021 0.111692 0.623515
vertex -0.167789 0.117687 0.623515
vertex -0.168994 0.111694 0.596173
endloop
endfacet
facet normal -0.998842 -0.048106 0.000000
outer loop
vertex -0.169021 0.111692 0.623515
vertex -0.159519 -0.085600 0.596174
vertex -0.159519 -0.085600 0.637523
endloop
endfacet
facet normal -0.998848 -0.047967 -0.001003
outer loop
vertex -0.169021 0.111692 0.623515
vertex -0.168994 0.111694 0.596173
vertex -0.159519 -0.085600 0.596174
endloop
endfacet
facet normal 0.998813 0.023942 -0.042423
outer loop
vertex -0.101631 -0.056600 0.662332
vertex -0.101631 -0.089057 0.644015
vertex -0.108072 0.114398 0.607185
endloop
endfacet
facet normal 0.999291 0.037641 0.000000
outer loop
vertex -0.101631 -0.056600 0.662332
vertex -0.108072 0.114398 0.607185
vertex -0.108072 0.114398 0.640845
endloop
endfacet
facet normal 0.089956 -0.990160 -0.107194
outer loop
vertex -0.111242 -0.085600 0.604015
vertex -0.108120 -0.085600 0.606635
vertex -0.101631 -0.089057 0.644015
endloop
endfacet
facet normal 0.014546 -0.995874 -0.089568
outer loop
vertex -0.111242 -0.085600 0.604015
vertex -0.101631 -0.089057 0.644015
vertex -0.159519 -0.085600 0.596174
endloop
endfacet
facet normal -0.123094 -0.645124 0.754097
outer loop
vertex -0.159519 -0.056600 0.662332
vertex -0.159519 -0.085600 0.637523
vertex -0.101631 -0.089057 0.644015
endloop
endfacet
facet normal 0.000000 -0.491489 0.870884
outer loop
vertex -0.159519 -0.056600 0.662332
vertex -0.101631 -0.089057 0.644015
vertex -0.101631 -0.056600 0.662332
endloop
endfacet
facet normal -0.997668 -0.044367 0.051862
outer loop
vertex -0.159519 -0.056600 0.662332
vertex -0.169021 0.111692 0.623515
vertex -0.159519 -0.085600 0.637523
endloop
endfacet
facet normal 0.707109 0.001775 -0.707102
outer loop
vertex -0.111242 0.114398 0.604015
vertex -0.108072 0.114398 0.607185
vertex -0.108120 -0.085600 0.606635
endloop
endfacet
facet normal 0.642839 0.000000 -0.766001
outer loop
vertex -0.111242 0.114398 0.604015
vertex -0.108120 -0.085600 0.606635
vertex -0.111242 -0.085600 0.604015
endloop
endfacet
facet normal 0.073456 0.994590 -0.073456
outer loop
vertex -0.111242 0.114398 0.604015
vertex -0.166225 0.117880 0.596174
vertex -0.108072 0.114398 0.607185
endloop
endfacet
facet normal 0.160305 0.000000 -0.987067
outer loop
vertex -0.111242 0.114398 0.604015
vertex -0.111242 -0.085600 0.604015
vertex -0.159519 -0.085600 0.596174
endloop
endfacet
facet normal 0.141460 0.004662 -0.989933
outer loop
vertex -0.111242 0.114398 0.604015
vertex -0.159519 -0.085600 0.596174
vertex -0.166225 0.117880 0.596174
endloop
endfacet
facet normal -0.669769 0.137667 0.729697
outer loop
vertex -0.146939 0.114398 0.643273
vertex -0.167789 0.117687 0.623515
vertex -0.169021 0.111692 0.623515
endloop
endfacet
facet normal -0.669928 0.130744 0.730823
outer loop
vertex -0.146939 0.114398 0.643273
vertex -0.169021 0.111692 0.623515
vertex -0.159519 -0.056600 0.662332
endloop
endfacet
facet normal 0.009638 0.987981 0.154273
outer loop
vertex -0.146939 0.114398 0.643273
vertex -0.108072 0.114398 0.640845
vertex -0.167789 0.117687 0.623515
endloop
endfacet
facet normal 0.000000 0.110774 0.993846
outer loop
vertex -0.146939 0.114398 0.643273
vertex -0.159519 -0.056600 0.662332
vertex -0.101631 -0.056600 0.662332
endloop
endfacet
facet normal 0.061840 0.126733 0.990007
outer loop
vertex -0.146939 0.114398 0.643273
vertex -0.101631 -0.056600 0.662332
vertex -0.108072 0.114398 0.640845
endloop
endfacet
endsolid /home/febert/Desktop/arm_base039
