solid /home/febert/Desktop/arm_base045
facet normal -0.000600 0.064422 0.997923
outer loop
vertex -0.180205 0.013510 1.564051
vertex -0.158413 0.085714 1.559403
vertex -0.217959 0.085159 1.559403
endloop
endfacet
facet normal 0.707112 -0.707102 0.000000
outer loop
vertex -0.156540 -0.052987 1.559403
vertex -0.161620 -0.058067 1.559403
vertex -0.156540 -0.052987 1.546703
endloop
endfacet
facet normal 0.051462 -0.051416 0.997350
outer loop
vertex -0.156540 -0.052987 1.559403
vertex -0.180205 0.013510 1.564051
vertex -0.161620 -0.058067 1.559403
endloop
endfacet
facet normal -0.120059 0.001145 0.992766
outer loop
vertex -0.219277 -0.052987 1.559403
vertex -0.180205 0.013510 1.564051
vertex -0.217959 0.085159 1.559403
endloop
endfacet
facet normal 0.203991 0.002754 0.978969
outer loop
vertex -0.169195 0.011207 1.561859
vertex -0.156540 -0.052987 1.559403
vertex -0.158413 0.085714 1.559403
endloop
endfacet
facet normal 0.196063 0.003951 0.980583
outer loop
vertex -0.169195 0.011207 1.561859
vertex -0.158413 0.085714 1.559403
vertex -0.180205 0.013510 1.564051
endloop
endfacet
facet normal 0.195464 0.001013 0.980710
outer loop
vertex -0.169195 0.011207 1.561859
vertex -0.180205 0.013510 1.564051
vertex -0.156540 -0.052987 1.559403
endloop
endfacet
facet normal 0.645184 -0.645187 -0.409232
outer loop
vertex -0.161620 -0.058067 1.546703
vertex -0.176365 -0.052143 1.514117
vertex -0.156540 -0.052987 1.546703
endloop
endfacet
facet normal 0.707109 -0.707104 0.000001
outer loop
vertex -0.161620 -0.058067 1.546703
vertex -0.156540 -0.052987 1.546703
vertex -0.161620 -0.058067 1.559403
endloop
endfacet
facet normal 0.849251 -0.096160 -0.519160
outer loop
vertex -0.169231 0.010854 1.514118
vertex -0.156540 -0.052987 1.546703
vertex -0.176365 -0.052143 1.514117
endloop
endfacet
facet normal -0.999805 0.009540 0.017264
outer loop
vertex -0.219506 0.004966 1.514117
vertex -0.219277 -0.052987 1.559403
vertex -0.217959 0.085159 1.559403
endloop
endfacet
facet normal -0.999987 0.000000 0.005057
outer loop
vertex -0.219506 0.004966 1.514117
vertex -0.219506 -0.025111 1.514117
vertex -0.219277 -0.052987 1.559403
endloop
endfacet
facet normal -0.012424 0.106356 -0.994250
outer loop
vertex -0.219506 0.004966 1.514117
vertex -0.193690 0.085292 1.522387
vertex -0.169231 0.010854 1.514118
endloop
endfacet
facet normal 0.000019 0.000016 -1.000000
outer loop
vertex -0.219506 0.004966 1.514117
vertex -0.169231 0.010854 1.514118
vertex -0.176365 -0.052143 1.514117
endloop
endfacet
facet normal 0.000006 0.000000 -1.000000
outer loop
vertex -0.219506 0.004966 1.514117
vertex -0.176365 -0.052143 1.514117
vertex -0.219506 -0.025111 1.514117
endloop
endfacet
facet normal 0.000000 -0.064802 0.997898
outer loop
vertex -0.214197 -0.058067 1.559403
vertex -0.161620 -0.058067 1.559403
vertex -0.180205 0.013510 1.564051
endloop
endfacet
facet normal -0.043955 -0.043943 0.998067
outer loop
vertex -0.214197 -0.058067 1.559403
vertex -0.180205 0.013510 1.564051
vertex -0.219277 -0.052987 1.559403
endloop
endfacet
facet normal 0.000000 -1.000000 0.000000
outer loop
vertex -0.214197 -0.058067 1.559403
vertex -0.161620 -0.058067 1.546703
vertex -0.161620 -0.058067 1.559403
endloop
endfacet
facet normal -0.009316 0.999957 0.000000
outer loop
vertex -0.158413 0.085714 1.546703
vertex -0.217959 0.085159 1.559403
vertex -0.158413 0.085714 1.559403
endloop
endfacet
facet normal 0.939902 0.012691 -0.341208
outer loop
vertex -0.158413 0.085714 1.546703
vertex -0.156540 -0.052987 1.546703
vertex -0.169231 0.010854 1.514118
endloop
endfacet
facet normal 0.999909 0.013502 -0.000000
outer loop
vertex -0.158413 0.085714 1.546703
vertex -0.156540 -0.052987 1.559403
vertex -0.156540 -0.052987 1.546703
endloop
endfacet
facet normal 0.999909 0.013501 0.000000
outer loop
vertex -0.158413 0.085714 1.546703
vertex -0.158413 0.085714 1.559403
vertex -0.156540 -0.052987 1.559403
endloop
endfacet
facet normal -0.999814 0.019288 0.000000
outer loop
vertex -0.217959 0.085159 1.546703
vertex -0.219506 0.004966 1.514117
vertex -0.217959 0.085159 1.559403
endloop
endfacet
facet normal -0.009316 0.999949 -0.003833
outer loop
vertex -0.217959 0.085159 1.546703
vertex -0.158413 0.085714 1.546703
vertex -0.193690 0.085292 1.522387
endloop
endfacet
facet normal -0.009316 0.999957 0.000000
outer loop
vertex -0.217959 0.085159 1.546703
vertex -0.217959 0.085159 1.559403
vertex -0.158413 0.085714 1.546703
endloop
endfacet
facet normal 0.000000 -0.983874 -0.178863
outer loop
vertex -0.214197 -0.058067 1.546703
vertex -0.176365 -0.052143 1.514117
vertex -0.161620 -0.058067 1.546703
endloop
endfacet
facet normal 0.000000 -1.000000 0.000001
outer loop
vertex -0.214197 -0.058067 1.546703
vertex -0.161620 -0.058067 1.546703
vertex -0.214197 -0.058067 1.559403
endloop
endfacet
facet normal -0.420602 -0.671250 -0.610342
outer loop
vertex -0.214197 -0.058067 1.546703
vertex -0.219506 -0.025111 1.514117
vertex -0.176365 -0.052143 1.514117
endloop
endfacet
facet normal -0.707109 -0.707104 0.000000
outer loop
vertex -0.214197 -0.058067 1.546703
vertex -0.214197 -0.058067 1.559403
vertex -0.219277 -0.052987 1.559403
endloop
endfacet
facet normal 0.795527 0.141487 -0.589167
outer loop
vertex -0.175636 0.081296 1.522387
vertex -0.158413 0.085714 1.546703
vertex -0.169231 0.010854 1.514118
endloop
endfacet
facet normal -0.646231 0.411459 -0.642719
outer loop
vertex -0.210050 0.059597 1.522387
vertex -0.217959 0.085159 1.546703
vertex -0.193690 0.085292 1.522387
endloop
endfacet
facet normal -0.304489 0.193873 -0.932577
outer loop
vertex -0.210050 0.059597 1.522387
vertex -0.193690 0.085292 1.522387
vertex -0.219506 0.004966 1.514117
endloop
endfacet
facet normal -0.835156 0.220807 -0.503744
outer loop
vertex -0.210050 0.059597 1.522387
vertex -0.219506 0.004966 1.514117
vertex -0.217959 0.085159 1.546703
endloop
endfacet
facet normal -0.707112 -0.707102 0.000001
outer loop
vertex -0.219277 -0.052987 1.546703
vertex -0.214197 -0.058067 1.546703
vertex -0.219277 -0.052987 1.559403
endloop
endfacet
facet normal -0.999966 -0.008212 0.000000
outer loop
vertex -0.219277 -0.052987 1.546703
vertex -0.219277 -0.052987 1.559403
vertex -0.219506 -0.025111 1.514117
endloop
endfacet
facet normal -0.606339 -0.606370 -0.514460
outer loop
vertex -0.219277 -0.052987 1.546703
vertex -0.219506 -0.025111 1.514117
vertex -0.214197 -0.058067 1.546703
endloop
endfacet
facet normal 0.253385 0.135468 -0.957833
outer loop
vertex -0.177376 0.084550 1.522387
vertex -0.175636 0.081296 1.522387
vertex -0.169231 0.010854 1.514118
endloop
endfacet
facet normal 0.005087 0.112053 -0.993689
outer loop
vertex -0.177376 0.084550 1.522387
vertex -0.169231 0.010854 1.514118
vertex -0.193690 0.085292 1.522387
endloop
endfacet
facet normal 0.045279 0.995524 -0.082959
outer loop
vertex -0.177376 0.084550 1.522387
vertex -0.193690 0.085292 1.522387
vertex -0.158413 0.085714 1.546703
endloop
endfacet
facet normal 0.718942 0.384443 -0.579074
outer loop
vertex -0.177376 0.084550 1.522387
vertex -0.158413 0.085714 1.546703
vertex -0.175636 0.081296 1.522387
endloop
endfacet
endsolid /home/febert/Desktop/arm_base045
