solid /home/febert/Desktop/arm_base021
facet normal 0.000000 -1.000000 0.000000
outer loop
vertex -0.200868 0.299621 0.499696
vertex 0.048896 0.299621 0.190957
vertex 0.048896 0.299621 0.439049
endloop
endfacet
facet normal -0.000000 1.000000 0.000000
outer loop
vertex -0.200868 0.436072 0.190957
vertex -0.200868 0.436072 0.499696
vertex 0.039629 0.436072 0.480398
endloop
endfacet
facet normal 1.000000 0.000000 0.000000
outer loop
vertex 0.048896 0.411672 0.475417
vertex 0.048896 0.299621 0.439049
vertex 0.048896 0.299621 0.190957
endloop
endfacet
facet normal 0.000000 0.000000 1.000000
outer loop
vertex -0.002394 0.365779 0.499696
vertex -0.200868 0.436072 0.499696
vertex -0.200868 0.299621 0.499696
endloop
endfacet
facet normal 0.000000 1.000000 0.000000
outer loop
vertex 0.039629 0.436072 0.190957
vertex -0.200868 0.436072 0.190957
vertex 0.039629 0.436072 0.480398
endloop
endfacet
facet normal 0.934847 0.355050 -0.000000
outer loop
vertex 0.039629 0.436072 0.190957
vertex 0.039629 0.436072 0.480398
vertex 0.048896 0.411672 0.475417
endloop
endfacet
facet normal -0.000000 -1.000000 0.000000
outer loop
vertex -0.200868 0.299621 0.169701
vertex 0.048896 0.299621 0.190957
vertex -0.200868 0.299621 0.499696
endloop
endfacet
facet normal -1.000000 0.000000 0.000000
outer loop
vertex -0.200868 0.299621 0.169701
vertex -0.200868 0.299621 0.499696
vertex -0.200868 0.436072 0.499696
endloop
endfacet
facet normal -1.000000 -0.000000 0.000000
outer loop
vertex -0.200868 0.299621 0.169701
vertex -0.200868 0.436072 0.499696
vertex -0.200868 0.436072 0.190957
endloop
endfacet
facet normal 0.000000 0.153919 -0.988084
outer loop
vertex -0.200868 0.299621 0.169701
vertex -0.200868 0.436072 0.190957
vertex 0.039629 0.436072 0.190957
endloop
endfacet
facet normal 0.417325 0.000000 0.908757
outer loop
vertex -0.002394 0.436072 0.499696
vertex -0.002394 0.365779 0.499696
vertex 0.039629 0.436072 0.480398
endloop
endfacet
facet normal 0.000000 1.000000 -0.000004
outer loop
vertex -0.002394 0.436072 0.499696
vertex 0.039629 0.436072 0.480398
vertex -0.200868 0.436072 0.499696
endloop
endfacet
facet normal 0.000000 0.000000 1.000000
outer loop
vertex -0.002394 0.436072 0.499696
vertex -0.200868 0.436072 0.499696
vertex -0.002394 0.365779 0.499696
endloop
endfacet
facet normal 0.473449 0.000000 0.880821
outer loop
vertex 0.048896 0.398858 0.475417
vertex 0.048896 0.411672 0.475417
vertex 0.039629 0.436072 0.480398
endloop
endfacet
facet normal 0.434340 -0.012393 0.900664
outer loop
vertex 0.048896 0.398858 0.475417
vertex 0.039629 0.436072 0.480398
vertex -0.002394 0.365779 0.499696
endloop
endfacet
facet normal 0.554538 -0.286342 0.781342
outer loop
vertex 0.048896 0.398858 0.475417
vertex -0.002394 0.365779 0.499696
vertex 0.048896 0.299621 0.439049
endloop
endfacet
facet normal 1.000000 0.000000 0.000000
outer loop
vertex 0.048896 0.398858 0.475417
vertex 0.048896 0.299621 0.439049
vertex 0.048896 0.411672 0.475417
endloop
endfacet
facet normal 0.000000 0.000000 1.000000
outer loop
vertex -0.068552 0.299621 0.499696
vertex -0.002394 0.365779 0.499696
vertex -0.200868 0.299621 0.499696
endloop
endfacet
facet normal 0.000000 -1.000000 0.000000
outer loop
vertex -0.068552 0.299621 0.499696
vertex -0.200868 0.299621 0.499696
vertex 0.048896 0.299621 0.439049
endloop
endfacet
facet normal 0.417015 -0.417015 0.807587
outer loop
vertex -0.068552 0.299621 0.499696
vertex 0.048896 0.299621 0.439049
vertex -0.002394 0.365779 0.499696
endloop
endfacet
facet normal 0.934847 0.355050 0.000000
outer loop
vertex 0.048896 0.411672 0.190957
vertex 0.039629 0.436072 0.190957
vertex 0.048896 0.411672 0.475417
endloop
endfacet
facet normal 1.000000 0.000000 0.000000
outer loop
vertex 0.048896 0.411672 0.190957
vertex 0.048896 0.411672 0.475417
vertex 0.048896 0.299621 0.190957
endloop
endfacet
facet normal 0.072495 0.027533 -0.996989
outer loop
vertex 0.048896 0.411672 0.190957
vertex -0.200868 0.299621 0.169701
vertex 0.039629 0.436072 0.190957
endloop
endfacet
facet normal 0.084797 0.000000 -0.996398
outer loop
vertex 0.048896 0.411672 0.190957
vertex 0.048896 0.299621 0.190957
vertex -0.200868 0.299621 0.169701
endloop
endfacet
endsolid /home/febert/Desktop/arm_base021
