solid /home/febert/Desktop/arm_base049
facet normal 0.015348 -0.999882 0.000000
outer loop
vertex -0.345366 0.150766 -0.048866
vertex 0.039629 0.156675 -0.090296
vertex 0.039629 0.156675 -0.048866
endloop
endfacet
facet normal 0.000000 0.000000 -1.000000
outer loop
vertex -0.283565 0.175575 -0.090296
vertex 0.039629 0.183845 -0.090296
vertex 0.039629 0.156675 -0.090296
endloop
endfacet
facet normal 0.004305 -0.280498 0.959845
outer loop
vertex 0.047225 0.175575 -0.043377
vertex -0.345366 0.150766 -0.048866
vertex 0.039629 0.156675 -0.048866
endloop
endfacet
facet normal -0.013980 0.000000 0.999902
outer loop
vertex 0.047225 0.175575 -0.043377
vertex -0.345366 0.175575 -0.048866
vertex -0.345366 0.150766 -0.048866
endloop
endfacet
facet normal 0.927871 -0.372902 0.000000
outer loop
vertex 0.047225 0.175575 -0.043377
vertex 0.039629 0.156675 -0.048866
vertex 0.039629 0.156675 -0.090296
endloop
endfacet
facet normal 0.987148 0.000000 -0.159808
outer loop
vertex 0.047225 0.175575 -0.043377
vertex 0.039629 0.156675 -0.090296
vertex 0.039629 0.183845 -0.090296
endloop
endfacet
facet normal 0.000000 0.000000 -1.000000
outer loop
vertex -0.258756 0.183845 -0.090296
vertex 0.039629 0.183845 -0.090296
vertex -0.283565 0.175575 -0.090296
endloop
endfacet
facet normal -1.000000 -0.000002 0.000000
outer loop
vertex -0.345366 0.175575 -0.065406
vertex -0.345366 0.150766 -0.048866
vertex -0.345366 0.175575 -0.048866
endloop
endfacet
facet normal -0.248722 0.746166 -0.617554
outer loop
vertex -0.345366 0.175575 -0.065406
vertex -0.258756 0.183845 -0.090296
vertex -0.283565 0.175575 -0.090296
endloop
endfacet
facet normal -0.095050 0.995473 0.000000
outer loop
vertex -0.345366 0.175575 -0.065406
vertex -0.345366 0.175575 -0.048866
vertex -0.258756 0.183845 -0.090296
endloop
endfacet
facet normal 0.000000 0.000000 -1.000000
outer loop
vertex -0.283565 0.156675 -0.090296
vertex -0.283565 0.175575 -0.090296
vertex 0.039629 0.156675 -0.090296
endloop
endfacet
facet normal -0.373591 0.000000 -0.927594
outer loop
vertex -0.283565 0.156675 -0.090296
vertex -0.345366 0.175575 -0.065406
vertex -0.283565 0.175575 -0.090296
endloop
endfacet
facet normal 0.000000 1.000000 0.000000
outer loop
vertex -0.258756 0.183845 -0.070296
vertex 0.039629 0.183845 -0.090296
vertex -0.258756 0.183845 -0.090296
endloop
endfacet
facet normal -0.095051 0.995472 0.000000
outer loop
vertex -0.258756 0.183845 -0.070296
vertex -0.258756 0.183845 -0.090296
vertex -0.345366 0.175575 -0.048866
endloop
endfacet
facet normal -0.004797 0.939292 0.343085
outer loop
vertex -0.258756 0.183845 -0.070296
vertex -0.345366 0.175575 -0.048866
vertex 0.047225 0.175575 -0.043377
endloop
endfacet
facet normal 0.000000 -0.972955 -0.230996
outer loop
vertex -0.345366 0.150766 -0.065406
vertex -0.283565 0.156675 -0.090296
vertex 0.039629 0.156675 -0.090296
endloop
endfacet
facet normal 0.015348 -0.999882 0.000000
outer loop
vertex -0.345366 0.150766 -0.065406
vertex 0.039629 0.156675 -0.090296
vertex -0.345366 0.150766 -0.048866
endloop
endfacet
facet normal -1.000000 0.000000 0.000000
outer loop
vertex -0.345366 0.150766 -0.065406
vertex -0.345366 0.150766 -0.048866
vertex -0.345366 0.175575 -0.065406
endloop
endfacet
facet normal -0.373592 0.000000 -0.927593
outer loop
vertex -0.345366 0.150766 -0.065406
vertex -0.345366 0.175575 -0.065406
vertex -0.283565 0.156675 -0.090296
endloop
endfacet
facet normal 0.000000 0.955909 0.293664
outer loop
vertex 0.039629 0.183845 -0.070296
vertex -0.258756 0.183845 -0.070296
vertex 0.047225 0.175575 -0.043377
endloop
endfacet
facet normal 0.736486 0.676453 0.000000
outer loop
vertex 0.039629 0.183845 -0.070296
vertex 0.047225 0.175575 -0.043377
vertex 0.039629 0.183845 -0.090296
endloop
endfacet
facet normal 0.000000 1.000000 0.000000
outer loop
vertex 0.039629 0.183845 -0.070296
vertex 0.039629 0.183845 -0.090296
vertex -0.258756 0.183845 -0.070296
endloop
endfacet
endsolid /home/febert/Desktop/arm_base049
