solid /home/febert/Desktop/arm_base061
facet normal 1.000000 -0.000000 0.000000
outer loop
vertex 0.048896 0.171675 0.356352
vertex 0.048896 0.171675 0.190957
vertex 0.048896 0.299621 0.190957
endloop
endfacet
facet normal 0.000000 -1.000000 0.000000
outer loop
vertex -0.200868 0.171675 0.190957
vertex 0.048896 0.171675 0.190957
vertex 0.048896 0.171675 0.356352
endloop
endfacet
facet normal 1.000000 0.000000 0.000000
outer loop
vertex 0.048896 0.299621 0.356352
vertex 0.048896 0.171675 0.356352
vertex 0.048896 0.299621 0.190957
endloop
endfacet
facet normal -0.000000 1.000000 -0.000000
outer loop
vertex 0.048896 0.299621 0.356352
vertex 0.048896 0.299621 0.190957
vertex -0.200868 0.299621 0.372618
endloop
endfacet
facet normal 0.064989 0.000000 0.997886
outer loop
vertex 0.048896 0.299621 0.356352
vertex -0.200868 0.299621 0.372618
vertex 0.048896 0.171675 0.356352
endloop
endfacet
facet normal 0.000000 -1.000000 0.000000
outer loop
vertex -0.200868 0.171675 0.356352
vertex -0.200868 0.171675 0.190957
vertex 0.048896 0.171675 0.356352
endloop
endfacet
facet normal 0.000000 -0.126119 0.992015
outer loop
vertex -0.200868 0.171675 0.356352
vertex 0.048896 0.171675 0.356352
vertex -0.200868 0.299621 0.372618
endloop
endfacet
facet normal -1.000000 0.000000 0.000000
outer loop
vertex -0.200868 0.171675 0.356352
vertex -0.200868 0.299621 0.372618
vertex -0.200868 0.171675 0.190957
endloop
endfacet
facet normal 0.084797 -0.000000 -0.996398
outer loop
vertex -0.200868 0.299621 0.169701
vertex 0.048896 0.299621 0.190957
vertex 0.048896 0.171675 0.190957
endloop
endfacet
facet normal 0.000000 -0.163884 -0.986480
outer loop
vertex -0.200868 0.299621 0.169701
vertex 0.048896 0.171675 0.190957
vertex -0.200868 0.171675 0.190957
endloop
endfacet
facet normal -1.000000 0.000000 0.000000
outer loop
vertex -0.200868 0.299621 0.169701
vertex -0.200868 0.171675 0.190957
vertex -0.200868 0.299621 0.372618
endloop
endfacet
facet normal 0.000000 1.000000 0.000000
outer loop
vertex -0.200868 0.299621 0.169701
vertex -0.200868 0.299621 0.372618
vertex 0.048896 0.299621 0.190957
endloop
endfacet
endsolid /home/febert/Desktop/arm_base061
