solid /home/febert/Desktop/arm_base042
facet normal 0.000000 1.000000 0.000000
outer loop
vertex -0.324914 0.436072 0.439049
vertex -0.324914 0.436072 0.499696
vertex -0.200868 0.436072 0.499696
endloop
endfacet
facet normal 0.000000 0.068949 0.997620
outer loop
vertex -0.300105 0.236674 0.513477
vertex -0.200868 0.436072 0.499696
vertex -0.324914 0.436072 0.499696
endloop
endfacet
facet normal 0.975531 -0.219862 0.000000
outer loop
vertex -0.200868 0.225193 0.499696
vertex -0.219506 0.142496 0.513477
vertex -0.200868 0.225193 0.429697
endloop
endfacet
facet normal 1.000000 0.000000 0.000000
outer loop
vertex -0.200868 0.225193 0.499696
vertex -0.200868 0.225193 0.429697
vertex -0.200868 0.436072 0.499696
endloop
endfacet
facet normal -0.014350 0.035874 -0.999253
outer loop
vertex -0.283565 0.192114 0.429697
vertex -0.324914 0.436072 0.439049
vertex -0.200868 0.225193 0.429697
endloop
endfacet
facet normal 0.000000 1.000000 0.000000
outer loop
vertex -0.200868 0.436072 0.439049
vertex -0.324914 0.436072 0.439049
vertex -0.200868 0.436072 0.499696
endloop
endfacet
facet normal 1.000000 -0.000000 0.000000
outer loop
vertex -0.200868 0.436072 0.439049
vertex -0.200868 0.436072 0.499696
vertex -0.200868 0.225193 0.429697
endloop
endfacet
facet normal 0.000000 0.044305 -0.999018
outer loop
vertex -0.200868 0.436072 0.439049
vertex -0.200868 0.225193 0.429697
vertex -0.324914 0.436072 0.439049
endloop
endfacet
facet normal -0.997543 0.070053 0.000000
outer loop
vertex -0.326366 0.415398 0.439049
vertex -0.324914 0.436072 0.499696
vertex -0.324914 0.436072 0.439049
endloop
endfacet
facet normal -0.157907 0.011089 -0.987392
outer loop
vertex -0.326366 0.415398 0.439049
vertex -0.324914 0.436072 0.439049
vertex -0.283565 0.192114 0.429697
endloop
endfacet
facet normal 0.000000 0.000000 1.000000
outer loop
vertex -0.214226 0.234803 0.513477
vertex -0.300105 0.236674 0.513477
vertex -0.219506 0.142496 0.513477
endloop
endfacet
facet normal 0.001486 0.068212 0.997670
outer loop
vertex -0.214226 0.234803 0.513477
vertex -0.200868 0.436072 0.499696
vertex -0.300105 0.236674 0.513477
endloop
endfacet
facet normal 0.000000 0.000000 1.000000
outer loop
vertex -0.296505 0.142496 0.513477
vertex -0.219506 0.142496 0.513477
vertex -0.300105 0.236674 0.513477
endloop
endfacet
facet normal 0.253204 -0.633010 -0.731564
outer loop
vertex -0.225677 0.156675 0.480398
vertex -0.283565 0.192114 0.429697
vertex -0.200868 0.225193 0.429697
endloop
endfacet
facet normal -0.999982 -0.006021 -0.000629
outer loop
vertex -0.324914 0.167305 0.505696
vertex -0.326366 0.415398 0.439049
vertex -0.324914 0.171675 0.463858
endloop
endfacet
facet normal -0.999718 0.000530 0.023752
outer loop
vertex -0.324914 0.167305 0.505696
vertex -0.324914 0.436072 0.499696
vertex -0.326366 0.415398 0.439049
endloop
endfacet
facet normal -0.272603 -0.010420 0.962070
outer loop
vertex -0.324914 0.167305 0.505696
vertex -0.296505 0.142496 0.513477
vertex -0.300105 0.236674 0.513477
endloop
endfacet
facet normal -0.351910 0.020891 0.935801
outer loop
vertex -0.324914 0.167305 0.505696
vertex -0.300105 0.236674 0.513477
vertex -0.324914 0.436072 0.499696
endloop
endfacet
facet normal -0.321530 -0.021983 -0.946644
outer loop
vertex -0.311100 0.192114 0.439049
vertex -0.326366 0.415398 0.439049
vertex -0.283565 0.192114 0.429697
endloop
endfacet
facet normal -0.235276 -0.681778 -0.692694
outer loop
vertex -0.311100 0.192114 0.439049
vertex -0.283565 0.192114 0.429697
vertex -0.324914 0.171675 0.463858
endloop
endfacet
facet normal -0.851066 -0.058188 -0.521824
outer loop
vertex -0.311100 0.192114 0.439049
vertex -0.324914 0.171675 0.463858
vertex -0.326366 0.415398 0.439049
endloop
endfacet
facet normal 0.795422 0.000000 0.606056
outer loop
vertex -0.211368 0.225193 0.513477
vertex -0.200868 0.225193 0.499696
vertex -0.200868 0.436072 0.499696
endloop
endfacet
facet normal 0.184688 0.054929 0.981261
outer loop
vertex -0.211368 0.225193 0.513477
vertex -0.200868 0.436072 0.499696
vertex -0.214226 0.234803 0.513477
endloop
endfacet
facet normal 0.000000 0.000000 1.000000
outer loop
vertex -0.211368 0.225193 0.513477
vertex -0.214226 0.234803 0.513477
vertex -0.219506 0.142496 0.513477
endloop
endfacet
facet normal 0.792997 -0.078036 0.604206
outer loop
vertex -0.211368 0.225193 0.513477
vertex -0.219506 0.142496 0.513477
vertex -0.200868 0.225193 0.499696
endloop
endfacet
facet normal 0.712552 -0.565409 -0.415431
outer loop
vertex -0.225677 0.142496 0.499696
vertex -0.225677 0.156675 0.480398
vertex -0.200868 0.225193 0.429697
endloop
endfacet
facet normal 0.775773 -0.526779 -0.347390
outer loop
vertex -0.225677 0.142496 0.499696
vertex -0.200868 0.225193 0.429697
vertex -0.219506 0.142496 0.513477
endloop
endfacet
facet normal 0.000000 -1.000000 0.000000
outer loop
vertex -0.225677 0.142496 0.499696
vertex -0.219506 0.142496 0.513477
vertex -0.296505 0.142496 0.513477
endloop
endfacet
facet normal 0.025231 -0.805605 -0.591916
outer loop
vertex -0.225677 0.142496 0.499696
vertex -0.283565 0.192114 0.429697
vertex -0.225677 0.156675 0.480398
endloop
endfacet
facet normal -0.665035 -0.742771 -0.077581
outer loop
vertex -0.296505 0.142496 0.499696
vertex -0.324914 0.167305 0.505696
vertex -0.324914 0.171675 0.463858
endloop
endfacet
facet normal -0.657773 -0.753217 0.000000
outer loop
vertex -0.296505 0.142496 0.499696
vertex -0.296505 0.142496 0.513477
vertex -0.324914 0.167305 0.505696
endloop
endfacet
facet normal 0.000000 -1.000000 0.000000
outer loop
vertex -0.296505 0.142496 0.499696
vertex -0.225677 0.142496 0.499696
vertex -0.296505 0.142496 0.513477
endloop
endfacet
facet normal 0.000000 -0.815827 -0.578296
outer loop
vertex -0.296505 0.142496 0.499696
vertex -0.283565 0.192114 0.429697
vertex -0.225677 0.142496 0.499696
endloop
endfacet
facet normal -0.106262 -0.810654 -0.575803
outer loop
vertex -0.300105 0.156675 0.480398
vertex -0.296505 0.142496 0.499696
vertex -0.324914 0.171675 0.463858
endloop
endfacet
facet normal -0.091311 -0.801966 -0.590350
outer loop
vertex -0.300105 0.156675 0.480398
vertex -0.324914 0.171675 0.463858
vertex -0.283565 0.192114 0.429697
endloop
endfacet
facet normal -0.056459 -0.809572 -0.584300
outer loop
vertex -0.300105 0.156675 0.480398
vertex -0.283565 0.192114 0.429697
vertex -0.296505 0.142496 0.499696
endloop
endfacet
endsolid /home/febert/Desktop/arm_base042
