solid /home/febert/Desktop/arm_base017
facet normal 0.000000 0.000000 1.000000
outer loop
vertex 0.039629 0.156675 0.190957
vertex 0.039629 0.436072 0.190957
vertex -0.068552 0.436072 0.190957
endloop
endfacet
facet normal 0.000000 1.000000 0.000000
outer loop
vertex -0.068552 0.436072 -0.015787
vertex -0.068552 0.436072 0.190957
vertex 0.039629 0.436072 0.190957
endloop
endfacet
facet normal 0.850740 -0.525587 0.000000
outer loop
vertex 0.048896 0.171675 0.190957
vertex 0.039629 0.156675 0.190957
vertex 0.048896 0.171675 -0.043377
endloop
endfacet
facet normal 0.000003 0.000000 1.000000
outer loop
vertex 0.048896 0.171675 0.190957
vertex 0.039629 0.436072 0.190957
vertex 0.039629 0.156675 0.190957
endloop
endfacet
facet normal 0.850740 -0.525587 0.000000
outer loop
vertex 0.039629 0.156675 -0.048866
vertex 0.048896 0.171675 -0.043377
vertex 0.039629 0.156675 0.190957
endloop
endfacet
facet normal 0.000000 -1.000000 0.000000
outer loop
vertex 0.039629 0.156675 -0.048866
vertex 0.039629 0.156675 0.190957
vertex -0.068552 0.156675 -0.048866
endloop
endfacet
facet normal 0.000000 -1.000000 0.000000
outer loop
vertex -0.068552 0.156675 0.190957
vertex -0.068552 0.156675 -0.048866
vertex 0.039629 0.156675 0.190957
endloop
endfacet
facet normal 0.000000 0.000000 1.000000
outer loop
vertex -0.068552 0.156675 0.190957
vertex 0.039629 0.156675 0.190957
vertex -0.068552 0.436072 0.190957
endloop
endfacet
facet normal 0.000000 1.000000 0.000000
outer loop
vertex 0.039629 0.436072 -0.015787
vertex -0.068552 0.436072 -0.015787
vertex 0.039629 0.436072 0.190957
endloop
endfacet
facet normal 1.000000 0.000000 0.000000
outer loop
vertex 0.048896 0.411672 0.190957
vertex 0.048896 0.171675 0.190957
vertex 0.048896 0.171675 -0.043377
endloop
endfacet
facet normal 0.000000 0.000000 1.000000
outer loop
vertex 0.048896 0.411672 0.190957
vertex 0.039629 0.436072 0.190957
vertex 0.048896 0.171675 0.190957
endloop
endfacet
facet normal 0.934847 0.355050 0.000000
outer loop
vertex 0.048896 0.411672 0.190957
vertex 0.039629 0.436072 -0.015787
vertex 0.039629 0.436072 0.190957
endloop
endfacet
facet normal 0.000000 0.024319 -0.999704
outer loop
vertex -0.002394 0.382319 -0.043377
vertex 0.039629 0.156675 -0.048866
vertex -0.068552 0.156675 -0.048866
endloop
endfacet
facet normal 0.000000 0.456632 -0.889656
outer loop
vertex -0.002394 0.382319 -0.043377
vertex -0.068552 0.436072 -0.015787
vertex 0.039629 0.436072 -0.015787
endloop
endfacet
facet normal 1.000000 0.000000 0.000000
outer loop
vertex 0.048896 0.411672 -0.015787
vertex 0.048896 0.411672 0.190957
vertex 0.048896 0.171675 -0.043377
endloop
endfacet
facet normal 0.934847 0.355050 0.000000
outer loop
vertex 0.048896 0.411672 -0.015787
vertex 0.039629 0.436072 -0.015787
vertex 0.048896 0.411672 0.190957
endloop
endfacet
facet normal -0.158403 0.070401 -0.984862
outer loop
vertex -0.068552 0.233463 -0.043377
vertex -0.002394 0.382319 -0.043377
vertex -0.068552 0.156675 -0.048866
endloop
endfacet
facet normal -0.290496 0.129109 -0.948126
outer loop
vertex -0.068552 0.233463 -0.043377
vertex -0.068552 0.436072 -0.015787
vertex -0.002394 0.382319 -0.043377
endloop
endfacet
facet normal -1.000000 0.000000 0.000000
outer loop
vertex -0.068552 0.233463 -0.043377
vertex -0.068552 0.436072 0.190957
vertex -0.068552 0.436072 -0.015787
endloop
endfacet
facet normal -1.000000 0.000000 0.000000
outer loop
vertex -0.068552 0.233463 -0.043377
vertex -0.068552 0.156675 0.190957
vertex -0.068552 0.436072 0.190957
endloop
endfacet
facet normal -1.000000 0.000000 0.000000
outer loop
vertex -0.068552 0.233463 -0.043377
vertex -0.068552 0.156675 -0.048866
vertex -0.068552 0.156675 0.190957
endloop
endfacet
facet normal 0.509633 -0.000000 -0.860392
outer loop
vertex 0.048896 0.382319 -0.043377
vertex 0.048896 0.171675 -0.043377
vertex 0.039629 0.156675 -0.048866
endloop
endfacet
facet normal 0.000000 0.024319 -0.999704
outer loop
vertex 0.048896 0.382319 -0.043377
vertex 0.039629 0.156675 -0.048866
vertex -0.002394 0.382319 -0.043377
endloop
endfacet
facet normal 1.000000 0.000000 0.000000
outer loop
vertex 0.048896 0.382319 -0.043377
vertex 0.048896 0.411672 -0.015787
vertex 0.048896 0.171675 -0.043377
endloop
endfacet
facet normal 0.000000 0.456632 -0.889656
outer loop
vertex 0.048896 0.382319 -0.043377
vertex -0.002394 0.382319 -0.043377
vertex 0.039629 0.436072 -0.015787
endloop
endfacet
facet normal 0.874533 0.332144 -0.353373
outer loop
vertex 0.048896 0.382319 -0.043377
vertex 0.039629 0.436072 -0.015787
vertex 0.048896 0.411672 -0.015787
endloop
endfacet
endsolid /home/febert/Desktop/arm_base017
