solid /home/febert/Desktop/arm_base035
facet normal 0.000000 -1.000000 0.000000
outer loop
vertex -0.349723 -0.053922 0.190957
vertex -0.283565 -0.053922 0.323273
vertex -0.283565 -0.053922 0.405970
endloop
endfacet
facet normal 0.000000 0.148691 0.988884
outer loop
vertex -0.283565 -0.049922 0.422510
vertex -0.283565 -0.024572 0.418698
vertex -0.319505 -0.024572 0.418698
endloop
endfacet
facet normal 1.000000 0.000000 0.000000
outer loop
vertex -0.283565 -0.049922 0.422510
vertex -0.283565 -0.053922 0.405970
vertex -0.283565 -0.053922 0.323273
endloop
endfacet
facet normal 0.000000 -1.000000 0.000000
outer loop
vertex -0.324914 -0.053922 0.405970
vertex -0.349723 -0.053922 0.190957
vertex -0.283565 -0.053922 0.405970
endloop
endfacet
facet normal 0.000000 -0.971979 0.235069
outer loop
vertex -0.324914 -0.053922 0.405970
vertex -0.283565 -0.053922 0.405970
vertex -0.283565 -0.049922 0.422510
endloop
endfacet
facet normal 1.000000 0.000000 0.000000
outer loop
vertex -0.283565 -0.024572 0.323273
vertex -0.283565 -0.049922 0.422510
vertex -0.283565 -0.053922 0.323273
endloop
endfacet
facet normal 1.000000 -0.000001 0.000000
outer loop
vertex -0.283565 -0.024572 0.323273
vertex -0.283565 -0.024572 0.418698
vertex -0.283565 -0.049922 0.422510
endloop
endfacet
facet normal 0.000000 1.000000 -0.000000
outer loop
vertex -0.283565 -0.024572 0.323273
vertex -0.319505 -0.024572 0.418698
vertex -0.283565 -0.024572 0.418698
endloop
endfacet
facet normal 0.000000 -0.971979 0.235069
outer loop
vertex -0.324914 -0.049922 0.422510
vertex -0.324914 -0.053922 0.405970
vertex -0.283565 -0.049922 0.422510
endloop
endfacet
facet normal 0.000000 0.148691 0.988884
outer loop
vertex -0.324914 -0.049922 0.422510
vertex -0.283565 -0.049922 0.422510
vertex -0.319505 -0.024572 0.418698
endloop
endfacet
facet normal -0.942606 0.236563 0.235651
outer loop
vertex -0.324914 -0.049922 0.422510
vertex -0.319505 -0.024572 0.418698
vertex -0.349723 -0.049922 0.323273
endloop
endfacet
facet normal 0.954480 0.000000 -0.298275
outer loop
vertex -0.324914 -0.053922 0.190957
vertex -0.283565 -0.024572 0.323273
vertex -0.283565 -0.053922 0.323273
endloop
endfacet
facet normal 0.000000 -1.000000 0.000000
outer loop
vertex -0.324914 -0.053922 0.190957
vertex -0.283565 -0.053922 0.323273
vertex -0.349723 -0.053922 0.190957
endloop
endfacet
facet normal -0.657874 0.753083 0.008271
outer loop
vertex -0.329504 -0.031169 0.224036
vertex -0.349723 -0.049922 0.323273
vertex -0.319505 -0.024572 0.418698
endloop
endfacet
facet normal -1.000000 0.000000 0.000000
outer loop
vertex -0.349723 -0.053922 0.323273
vertex -0.349723 -0.049922 0.323273
vertex -0.349723 -0.053922 0.190957
endloop
endfacet
facet normal -0.000000 -1.000000 0.000000
outer loop
vertex -0.349723 -0.053922 0.323273
vertex -0.349723 -0.053922 0.190957
vertex -0.324914 -0.053922 0.405970
endloop
endfacet
facet normal -0.970142 0.000000 0.242536
outer loop
vertex -0.349723 -0.053922 0.323273
vertex -0.324914 -0.049922 0.422510
vertex -0.349723 -0.049922 0.323273
endloop
endfacet
facet normal -0.616776 -0.765081 0.185033
outer loop
vertex -0.349723 -0.053922 0.323273
vertex -0.324914 -0.053922 0.405970
vertex -0.324914 -0.049922 0.422510
endloop
endfacet
facet normal -0.550704 0.834700 -0.000000
outer loop
vertex -0.319505 -0.024572 0.323273
vertex -0.329504 -0.031169 0.224036
vertex -0.319505 -0.024572 0.418698
endloop
endfacet
facet normal 0.000000 1.000000 -0.000000
outer loop
vertex -0.319505 -0.024572 0.323273
vertex -0.319505 -0.024572 0.418698
vertex -0.283565 -0.024572 0.323273
endloop
endfacet
facet normal 0.000000 0.997798 -0.066330
outer loop
vertex -0.319505 -0.024572 0.323273
vertex -0.283565 -0.024572 0.323273
vertex -0.329504 -0.031169 0.224036
endloop
endfacet
facet normal -1.000000 0.000000 0.000000
outer loop
vertex -0.349723 -0.049922 0.190957
vertex -0.349723 -0.053922 0.190957
vertex -0.349723 -0.049922 0.323273
endloop
endfacet
facet normal -0.680021 0.733192 -0.000000
outer loop
vertex -0.349723 -0.049922 0.190957
vertex -0.349723 -0.049922 0.323273
vertex -0.329504 -0.031169 0.224036
endloop
endfacet
facet normal 0.000000 0.000000 -1.000000
outer loop
vertex -0.349723 -0.049922 0.190957
vertex -0.324914 -0.053922 0.190957
vertex -0.349723 -0.053922 0.190957
endloop
endfacet
facet normal 0.332400 0.918324 -0.214921
outer loop
vertex -0.324914 -0.040572 0.190957
vertex -0.329504 -0.031169 0.224036
vertex -0.283565 -0.024572 0.323273
endloop
endfacet
facet normal 0.954480 0.000000 -0.298275
outer loop
vertex -0.324914 -0.040572 0.190957
vertex -0.283565 -0.024572 0.323273
vertex -0.324914 -0.053922 0.190957
endloop
endfacet
facet normal -0.449356 0.866679 -0.216670
outer loop
vertex -0.329504 -0.039439 0.190957
vertex -0.349723 -0.049922 0.190957
vertex -0.329504 -0.031169 0.224036
endloop
endfacet
facet normal 0.232954 0.943452 -0.235862
outer loop
vertex -0.329504 -0.039439 0.190957
vertex -0.329504 -0.031169 0.224036
vertex -0.324914 -0.040572 0.190957
endloop
endfacet
facet normal 0.000008 0.000000 -1.000000
outer loop
vertex -0.329504 -0.039439 0.190957
vertex -0.324914 -0.040572 0.190957
vertex -0.324914 -0.053922 0.190957
endloop
endfacet
facet normal -0.000000 0.000000 -1.000000
outer loop
vertex -0.329504 -0.039439 0.190957
vertex -0.324914 -0.053922 0.190957
vertex -0.349723 -0.049922 0.190957
endloop
endfacet
endsolid /home/febert/Desktop/arm_base035
