solid /home/febert/Desktop/arm_base029
facet normal 0.000000 -1.000000 0.000000
outer loop
vertex 0.510331 -0.494275 -0.042477
vertex 0.525160 -0.494275 -0.044477
vertex 0.525160 -0.494275 0.008323
endloop
endfacet
facet normal 0.000000 0.000000 1.000000
outer loop
vertex 0.525160 0.026719 0.008323
vertex 0.523160 0.026719 0.008323
vertex 0.525160 -0.494275 0.008323
endloop
endfacet
facet normal 0.997831 -0.065825 0.000000
outer loop
vertex 0.535137 -0.343040 -0.044459
vertex 0.525160 -0.494275 0.008323
vertex 0.525160 -0.494275 -0.044477
endloop
endfacet
facet normal 0.982601 -0.000000 0.185730
outer loop
vertex 0.535137 -0.343040 -0.044459
vertex 0.525160 0.026719 0.008323
vertex 0.525160 -0.494275 0.008323
endloop
endfacet
facet normal 0.984423 0.001465 0.175809
outer loop
vertex 0.535137 -0.343040 -0.044459
vertex 0.535140 -0.103043 -0.046477
vertex 0.525160 0.026719 0.008323
endloop
endfacet
facet normal 0.000000 -1.000000 0.000000
outer loop
vertex 0.523160 -0.494275 0.008323
vertex 0.510331 -0.494275 -0.042477
vertex 0.525160 -0.494275 0.008323
endloop
endfacet
facet normal 0.000000 0.000000 1.000000
outer loop
vertex 0.523160 -0.494275 0.008323
vertex 0.525160 -0.494275 0.008323
vertex 0.523160 0.026719 0.008323
endloop
endfacet
facet normal -0.969559 0.000000 0.244858
outer loop
vertex 0.523160 -0.494275 0.008323
vertex 0.523160 0.026719 0.008323
vertex 0.510331 -0.494275 -0.042477
endloop
endfacet
facet normal 0.000000 -0.005112 -0.999987
outer loop
vertex 0.510331 -0.494275 -0.044477
vertex 0.535140 -0.103043 -0.046477
vertex 0.525160 -0.494275 -0.044477
endloop
endfacet
facet normal 0.000000 -1.000000 0.000000
outer loop
vertex 0.510331 -0.494275 -0.044477
vertex 0.525160 -0.494275 -0.044477
vertex 0.510331 -0.494275 -0.042477
endloop
endfacet
facet normal 0.000000 1.000000 -0.000000
outer loop
vertex 0.510331 0.026719 -0.044477
vertex 0.523160 0.026719 0.008323
vertex 0.525160 0.026719 0.008323
endloop
endfacet
facet normal -0.080354 -0.000000 -0.996766
outer loop
vertex 0.510331 0.026719 -0.044477
vertex 0.535140 -0.103043 -0.046477
vertex 0.510331 -0.494275 -0.044477
endloop
endfacet
facet normal -1.000000 -0.000000 0.000000
outer loop
vertex 0.510331 0.026719 -0.044477
vertex 0.510331 -0.494275 -0.044477
vertex 0.510331 -0.494275 -0.042477
endloop
endfacet
facet normal 0.986686 -0.065073 -0.149052
outer loop
vertex 0.535112 -0.343040 -0.044626
vertex 0.535137 -0.343040 -0.044459
vertex 0.525160 -0.494275 -0.044477
endloop
endfacet
facet normal 0.101841 -0.007683 -0.994771
outer loop
vertex 0.535112 -0.343040 -0.044626
vertex 0.525160 -0.494275 -0.044477
vertex 0.535140 -0.103043 -0.046477
endloop
endfacet
facet normal 0.988786 -0.001273 -0.149333
outer loop
vertex 0.535112 -0.343040 -0.044626
vertex 0.535140 -0.103043 -0.046477
vertex 0.535137 -0.343040 -0.044459
endloop
endfacet
facet normal 0.000000 1.000000 -0.000000
outer loop
vertex 0.525160 0.026719 -0.044477
vertex 0.510331 0.026719 -0.044477
vertex 0.525160 0.026719 0.008323
endloop
endfacet
facet normal 0.997056 0.076683 0.000000
outer loop
vertex 0.525160 0.026719 -0.044477
vertex 0.525160 0.026719 0.008323
vertex 0.535140 -0.103043 -0.046477
endloop
endfacet
facet normal 0.000000 0.015411 -0.999881
outer loop
vertex 0.525160 0.026719 -0.044477
vertex 0.535140 -0.103043 -0.046477
vertex 0.510331 0.026719 -0.044477
endloop
endfacet
facet normal -1.000000 0.000000 0.000000
outer loop
vertex 0.510331 0.026719 -0.042477
vertex 0.510331 0.026719 -0.044477
vertex 0.510331 -0.494275 -0.042477
endloop
endfacet
facet normal -0.969559 0.000000 0.244858
outer loop
vertex 0.510331 0.026719 -0.042477
vertex 0.510331 -0.494275 -0.042477
vertex 0.523160 0.026719 0.008323
endloop
endfacet
facet normal -0.000000 1.000000 0.000000
outer loop
vertex 0.510331 0.026719 -0.042477
vertex 0.523160 0.026719 0.008323
vertex 0.510331 0.026719 -0.044477
endloop
endfacet
endsolid /home/febert/Desktop/arm_base029
