solid /home/febert/Desktop/arm_base062
facet normal 0.000000 0.000000 1.000000
outer loop
vertex -0.068552 0.167305 0.499696
vertex -0.068552 0.299621 0.499696
vertex -0.200868 0.299621 0.499696
endloop
endfacet
facet normal 0.000000 -0.999536 -0.030471
outer loop
vertex -0.200868 0.167305 0.499696
vertex -0.068552 0.171675 0.356352
vertex -0.068552 0.167305 0.499696
endloop
endfacet
facet normal 0.000000 0.000000 1.000000
outer loop
vertex -0.200868 0.167305 0.499696
vertex -0.068552 0.167305 0.499696
vertex -0.200868 0.299621 0.499696
endloop
endfacet
facet normal 0.000000 1.000000 0.000000
outer loop
vertex -0.068552 0.299621 0.372618
vertex -0.200868 0.299621 0.499696
vertex -0.068552 0.299621 0.499696
endloop
endfacet
facet normal 1.000000 0.000000 0.000000
outer loop
vertex -0.068552 0.299621 0.372618
vertex -0.068552 0.167305 0.499696
vertex -0.068552 0.171675 0.356352
endloop
endfacet
facet normal 1.000000 0.000000 0.000000
outer loop
vertex -0.068552 0.299621 0.372618
vertex -0.068552 0.299621 0.499696
vertex -0.068552 0.167305 0.499696
endloop
endfacet
facet normal -1.000000 0.000000 0.000000
outer loop
vertex -0.200868 0.171675 0.356352
vertex -0.200868 0.167305 0.499696
vertex -0.200868 0.299621 0.499696
endloop
endfacet
facet normal 0.000000 -0.999536 -0.030471
outer loop
vertex -0.200868 0.171675 0.356352
vertex -0.068552 0.171675 0.356352
vertex -0.200868 0.167305 0.499696
endloop
endfacet
facet normal 0.002421 0.126118 -0.992012
outer loop
vertex -0.200868 0.174215 0.356352
vertex -0.068552 0.299621 0.372618
vertex -0.068552 0.171675 0.356352
endloop
endfacet
facet normal 0.000000 0.000000 -1.000000
outer loop
vertex -0.200868 0.174215 0.356352
vertex -0.068552 0.171675 0.356352
vertex -0.200868 0.171675 0.356352
endloop
endfacet
facet normal 0.000000 1.000000 0.000000
outer loop
vertex -0.200868 0.299621 0.372618
vertex -0.200868 0.299621 0.499696
vertex -0.068552 0.299621 0.372618
endloop
endfacet
facet normal 0.000000 0.128631 -0.991693
outer loop
vertex -0.200868 0.299621 0.372618
vertex -0.068552 0.299621 0.372618
vertex -0.200868 0.174215 0.356352
endloop
endfacet
facet normal -1.000000 0.000000 0.000000
outer loop
vertex -0.200868 0.299621 0.372618
vertex -0.200868 0.174215 0.356352
vertex -0.200868 0.171675 0.356352
endloop
endfacet
facet normal -1.000000 0.000000 0.000000
outer loop
vertex -0.200868 0.299621 0.372618
vertex -0.200868 0.171675 0.356352
vertex -0.200868 0.299621 0.499696
endloop
endfacet
endsolid /home/febert/Desktop/arm_base062
