solid /home/febert/Desktop/arm_base024
facet normal 0.999571 0.025339 0.014667
outer loop
vertex -0.173767 0.007545 0.819467
vertex -0.165404 -0.000833 0.264020
vertex -0.175636 0.081296 0.819458
endloop
endfacet
facet normal -0.000386 0.000017 1.000000
outer loop
vertex -0.199054 -0.037117 0.819458
vertex -0.173767 0.007545 0.819467
vertex -0.193690 0.085292 0.819458
endloop
endfacet
facet normal 0.000012 -0.000211 1.000000
outer loop
vertex -0.199054 -0.037117 0.819458
vertex -0.184846 -0.036201 0.819458
vertex -0.173767 0.007545 0.819467
endloop
endfacet
facet normal -0.552153 -0.833742 0.000000
outer loop
vertex -0.199054 -0.037117 0.819458
vertex -0.199054 -0.037117 0.265384
vertex -0.176365 -0.052143 0.356352
endloop
endfacet
facet normal 0.999509 0.027896 0.014287
outer loop
vertex -0.167789 0.084608 0.264020
vertex -0.175636 0.081296 0.819458
vertex -0.165404 -0.000833 0.264020
endloop
endfacet
facet normal 0.000000 0.000000 -1.000000
outer loop
vertex -0.167789 0.084608 0.264020
vertex -0.165404 -0.000833 0.264020
vertex -0.176059 0.092877 0.264020
endloop
endfacet
facet normal 0.045430 0.998854 0.015083
outer loop
vertex -0.177376 0.084550 0.819458
vertex -0.176059 0.092877 0.264020
vertex -0.193690 0.085292 0.819458
endloop
endfacet
facet normal 0.707053 0.707054 0.012277
outer loop
vertex -0.177376 0.084550 0.819458
vertex -0.167789 0.084608 0.264020
vertex -0.176059 0.092877 0.264020
endloop
endfacet
facet normal 0.881740 0.471488 0.015268
outer loop
vertex -0.177376 0.084550 0.819458
vertex -0.175636 0.081296 0.819458
vertex -0.167789 0.084608 0.264020
endloop
endfacet
facet normal 0.000244 0.000129 1.000000
outer loop
vertex -0.177376 0.084550 0.819458
vertex -0.173767 0.007545 0.819467
vertex -0.175636 0.081296 0.819458
endloop
endfacet
facet normal 0.000000 0.000118 1.000000
outer loop
vertex -0.177376 0.084550 0.819458
vertex -0.193690 0.085292 0.819458
vertex -0.173767 0.007545 0.819467
endloop
endfacet
facet normal 0.000000 0.999907 0.013655
outer loop
vertex -0.200868 0.092877 0.264020
vertex -0.193690 0.085292 0.819458
vertex -0.176059 0.092877 0.264020
endloop
endfacet
facet normal -0.998950 0.043774 0.013507
outer loop
vertex -0.200868 0.092877 0.264020
vertex -0.199054 -0.037117 0.819458
vertex -0.193690 0.085292 0.819458
endloop
endfacet
facet normal -0.999903 -0.013952 0.000000
outer loop
vertex -0.200868 0.092877 0.264020
vertex -0.199054 -0.037117 0.265384
vertex -0.199054 -0.037117 0.819458
endloop
endfacet
facet normal 0.000000 0.000000 -1.000000
outer loop
vertex -0.200868 0.092877 0.264020
vertex -0.176059 0.092877 0.264020
vertex -0.165404 -0.000833 0.264020
endloop
endfacet
facet normal -0.028783 -0.010893 -0.999526
outer loop
vertex -0.200868 0.092877 0.264020
vertex -0.165404 -0.000833 0.264020
vertex -0.199054 -0.037117 0.265384
endloop
endfacet
facet normal 0.063311 -0.981992 -0.177997
outer loop
vertex -0.184846 -0.036201 0.265384
vertex -0.176365 -0.052143 0.356352
vertex -0.199054 -0.037117 0.265384
endloop
endfacet
facet normal 0.002577 -0.039964 -0.999198
outer loop
vertex -0.184846 -0.036201 0.265384
vertex -0.199054 -0.037117 0.265384
vertex -0.165404 -0.000833 0.264020
endloop
endfacet
facet normal 0.861703 -0.480021 -0.164461
outer loop
vertex -0.184846 -0.036201 0.265384
vertex -0.165404 -0.000833 0.264020
vertex -0.176365 -0.052143 0.356352
endloop
endfacet
facet normal 0.968629 -0.245333 0.039630
outer loop
vertex -0.176365 -0.052143 0.513477
vertex -0.173767 0.007545 0.819467
vertex -0.184846 -0.036201 0.819458
endloop
endfacet
facet normal -0.552153 -0.833742 0.000000
outer loop
vertex -0.176365 -0.052143 0.513477
vertex -0.199054 -0.037117 0.819458
vertex -0.176365 -0.052143 0.356352
endloop
endfacet
facet normal 0.064245 -0.996488 0.053699
outer loop
vertex -0.176365 -0.052143 0.513477
vertex -0.184846 -0.036201 0.819458
vertex -0.199054 -0.037117 0.819458
endloop
endfacet
facet normal 0.977936 -0.208905 0.000000
outer loop
vertex -0.176365 -0.052143 0.513477
vertex -0.176365 -0.052143 0.356352
vertex -0.165404 -0.000833 0.264020
endloop
endfacet
facet normal 0.991409 -0.129706 0.016882
outer loop
vertex -0.176365 -0.052143 0.513477
vertex -0.165404 -0.000833 0.264020
vertex -0.173767 0.007545 0.819467
endloop
endfacet
endsolid /home/febert/Desktop/arm_base024
