solid /home/febert/Desktop/arm_base030
facet normal 0.000000 0.000000 1.000000
outer loop
vertex -0.165852 0.148522 0.623515
vertex -0.200868 0.151692 0.623515
vertex -0.169021 0.111692 0.623515
endloop
endfacet
facet normal 0.996505 -0.081122 0.019926
outer loop
vertex -0.166100 0.116874 0.623515
vertex -0.159519 0.109417 0.264020
vertex -0.159519 0.167305 0.499696
endloop
endfacet
facet normal -0.000041 0.000000 1.000000
outer loop
vertex -0.166100 0.116874 0.623515
vertex -0.165852 0.148522 0.623515
vertex -0.169021 0.111692 0.623515
endloop
endfacet
facet normal 0.998724 -0.007840 0.049892
outer loop
vertex -0.166100 0.116874 0.623515
vertex -0.159519 0.167305 0.499696
vertex -0.165852 0.148522 0.623515
endloop
endfacet
facet normal -0.029588 -0.999547 0.005544
outer loop
vertex -0.201049 0.112640 0.623515
vertex -0.159519 0.109417 0.264020
vertex -0.169021 0.111692 0.623515
endloop
endfacet
facet normal 0.000000 0.000000 1.000000
outer loop
vertex -0.201049 0.112640 0.623515
vertex -0.169021 0.111692 0.623515
vertex -0.200868 0.151692 0.623515
endloop
endfacet
facet normal 0.700051 0.699838 0.141969
outer loop
vertex -0.169021 0.151692 0.623515
vertex -0.165852 0.148522 0.623515
vertex -0.159519 0.167305 0.499696
endloop
endfacet
facet normal 0.000000 0.000000 1.000000
outer loop
vertex -0.169021 0.151692 0.623515
vertex -0.200868 0.151692 0.623515
vertex -0.165852 0.148522 0.623515
endloop
endfacet
facet normal 0.870350 -0.490524 0.043325
outer loop
vertex -0.165917 0.114784 0.596174
vertex -0.166100 0.116874 0.623515
vertex -0.169021 0.111692 0.623515
endloop
endfacet
facet normal 0.807733 -0.589014 0.025077
outer loop
vertex -0.165917 0.114784 0.596174
vertex -0.169021 0.111692 0.623515
vertex -0.159519 0.109417 0.264020
endloop
endfacet
facet normal 0.978717 -0.204016 0.022149
outer loop
vertex -0.165917 0.114784 0.596174
vertex -0.159519 0.109417 0.264020
vertex -0.166100 0.116874 0.623515
endloop
endfacet
facet normal -0.062455 -0.998048 0.000524
outer loop
vertex -0.204601 0.112352 0.480400
vertex -0.204424 0.112228 0.265387
vertex -0.159519 0.109417 0.264020
endloop
endfacet
facet normal -0.049459 -0.998771 0.003241
outer loop
vertex -0.204601 0.112352 0.480400
vertex -0.159519 0.109417 0.264020
vertex -0.201049 0.112640 0.623515
endloop
endfacet
facet normal 1.000000 0.000000 0.000000
outer loop
vertex -0.159519 0.171675 0.240575
vertex -0.159519 0.167305 0.499696
vertex -0.159519 0.109417 0.264020
endloop
endfacet
facet normal -0.069220 -0.928589 -0.364598
outer loop
vertex -0.200151 0.141133 0.190957
vertex -0.159519 0.109417 0.264020
vertex -0.204424 0.112228 0.265387
endloop
endfacet
facet normal 0.768096 0.018034 -0.640080
outer loop
vertex -0.200151 0.141133 0.190957
vertex -0.200868 0.171675 0.190957
vertex -0.159519 0.171675 0.240575
endloop
endfacet
facet normal 0.000000 1.000000 -0.000000
outer loop
vertex -0.225677 0.171675 0.479697
vertex -0.159519 0.171675 0.240575
vertex -0.200868 0.171675 0.190957
endloop
endfacet
facet normal 0.060833 0.998006 0.016831
outer loop
vertex -0.225677 0.171675 0.479697
vertex -0.159519 0.167305 0.499696
vertex -0.159519 0.171675 0.240575
endloop
endfacet
facet normal 0.027070 0.991520 0.127104
outer loop
vertex -0.225677 0.171675 0.479697
vertex -0.169021 0.151692 0.623515
vertex -0.159519 0.167305 0.499696
endloop
endfacet
facet normal 0.000000 0.990485 0.137624
outer loop
vertex -0.225677 0.171675 0.479697
vertex -0.200868 0.151692 0.623515
vertex -0.169021 0.151692 0.623515
endloop
endfacet
facet normal 0.805014 -0.130909 -0.578633
outer loop
vertex -0.167106 0.125020 0.240575
vertex -0.200151 0.141133 0.190957
vertex -0.159519 0.171675 0.240575
endloop
endfacet
facet normal 0.907996 -0.147654 -0.392099
outer loop
vertex -0.167106 0.125020 0.240575
vertex -0.159519 0.171675 0.240575
vertex -0.159519 0.109417 0.264020
endloop
endfacet
facet normal 0.577932 -0.580647 -0.573449
outer loop
vertex -0.167106 0.125020 0.240575
vertex -0.159519 0.109417 0.264020
vertex -0.200151 0.141133 0.190957
endloop
endfacet
facet normal -0.901846 -0.432057 -0.000494
outer loop
vertex -0.225677 0.156675 0.190957
vertex -0.204424 0.112228 0.265387
vertex -0.204601 0.112352 0.480400
endloop
endfacet
facet normal -0.902857 -0.429311 0.023276
outer loop
vertex -0.225677 0.156675 0.480398
vertex -0.204601 0.112352 0.480400
vertex -0.201049 0.112640 0.623515
endloop
endfacet
facet normal -0.985268 0.004567 0.170955
outer loop
vertex -0.225677 0.156675 0.480398
vertex -0.201049 0.112640 0.623515
vertex -0.200868 0.151692 0.623515
endloop
endfacet
facet normal -0.985227 0.007994 0.171067
outer loop
vertex -0.225677 0.156675 0.480398
vertex -0.200868 0.151692 0.623515
vertex -0.225677 0.171675 0.479697
endloop
endfacet
facet normal -0.903101 -0.429427 0.000000
outer loop
vertex -0.225677 0.156675 0.480398
vertex -0.225677 0.156675 0.190957
vertex -0.204601 0.112352 0.480400
endloop
endfacet
facet normal -1.000000 -0.000003 0.000000
outer loop
vertex -0.225677 0.156675 0.480398
vertex -0.225677 0.171675 0.479697
vertex -0.225677 0.156675 0.190957
endloop
endfacet
facet normal 0.000000 0.000000 -1.000000
outer loop
vertex -0.205167 0.142986 0.190957
vertex -0.225677 0.156675 0.190957
vertex -0.200151 0.141133 0.190957
endloop
endfacet
facet normal -0.323499 -0.875633 -0.358630
outer loop
vertex -0.205167 0.142986 0.190957
vertex -0.200151 0.141133 0.190957
vertex -0.204424 0.112228 0.265387
endloop
endfacet
facet normal -0.525875 -0.787923 -0.320363
outer loop
vertex -0.205167 0.142986 0.190957
vertex -0.204424 0.112228 0.265387
vertex -0.225677 0.156675 0.190957
endloop
endfacet
facet normal -1.000000 0.000000 0.000000
outer loop
vertex -0.225677 0.171675 0.190957
vertex -0.225677 0.156675 0.190957
vertex -0.225677 0.171675 0.479697
endloop
endfacet
facet normal 0.000000 1.000000 0.000000
outer loop
vertex -0.225677 0.171675 0.190957
vertex -0.225677 0.171675 0.479697
vertex -0.200868 0.171675 0.190957
endloop
endfacet
facet normal 0.000000 0.000000 -1.000000
outer loop
vertex -0.225677 0.171675 0.190957
vertex -0.200868 0.171675 0.190957
vertex -0.200151 0.141133 0.190957
endloop
endfacet
facet normal 0.000001 0.000000 -1.000000
outer loop
vertex -0.225677 0.171675 0.190957
vertex -0.200151 0.141133 0.190957
vertex -0.225677 0.156675 0.190957
endloop
endfacet
endsolid /home/febert/Desktop/arm_base030
