solid /home/febert/Desktop/arm_base027
facet normal 0.000000 0.000000 1.000000
outer loop
vertex 0.039629 0.167305 0.499696
vertex 0.039629 0.436072 0.499696
vertex -0.002394 0.436072 0.499696
endloop
endfacet
facet normal 0.000000 -0.997414 -0.071869
outer loop
vertex -0.068552 0.171675 0.439049
vertex 0.048896 0.171675 0.439049
vertex 0.039629 0.167305 0.499696
endloop
endfacet
facet normal 0.426512 -0.904482 0.000000
outer loop
vertex 0.048896 0.171675 0.475417
vertex 0.039629 0.167305 0.499696
vertex 0.048896 0.171675 0.439049
endloop
endfacet
facet normal 0.934259 0.000000 0.356595
outer loop
vertex 0.048896 0.171675 0.475417
vertex 0.039629 0.436072 0.499696
vertex 0.039629 0.167305 0.499696
endloop
endfacet
facet normal 0.000000 -0.997414 -0.071868
outer loop
vertex -0.068552 0.167305 0.499696
vertex -0.068552 0.171675 0.439049
vertex 0.039629 0.167305 0.499696
endloop
endfacet
facet normal 0.000000 0.000000 1.000000
outer loop
vertex -0.068552 0.167305 0.499696
vertex 0.039629 0.167305 0.499696
vertex -0.002394 0.436072 0.499696
endloop
endfacet
facet normal 0.179383 -0.000000 -0.983779
outer loop
vertex 0.048896 0.398858 0.439049
vertex 0.048896 0.171675 0.439049
vertex -0.002394 0.398858 0.429697
endloop
endfacet
facet normal 1.000000 0.000000 0.000000
outer loop
vertex 0.048896 0.398858 0.439049
vertex 0.048896 0.171675 0.475417
vertex 0.048896 0.171675 0.439049
endloop
endfacet
facet normal 0.000000 1.000000 0.000000
outer loop
vertex -0.002394 0.436072 0.480398
vertex -0.002394 0.436072 0.499696
vertex 0.039629 0.436072 0.499696
endloop
endfacet
facet normal 0.018479 -0.036959 -0.999146
outer loop
vertex -0.068552 0.365779 0.429697
vertex -0.002394 0.398858 0.429697
vertex 0.048896 0.171675 0.439049
endloop
endfacet
facet normal 0.000000 -0.048126 -0.998841
outer loop
vertex -0.068552 0.365779 0.429697
vertex 0.048896 0.171675 0.439049
vertex -0.068552 0.171675 0.439049
endloop
endfacet
facet normal -0.373849 0.747698 -0.548802
outer loop
vertex -0.068552 0.365779 0.429697
vertex -0.002394 0.436072 0.480398
vertex -0.002394 0.398858 0.429697
endloop
endfacet
facet normal -0.728200 0.685365 0.000000
outer loop
vertex -0.068552 0.365779 0.429697
vertex -0.002394 0.436072 0.499696
vertex -0.002394 0.436072 0.480398
endloop
endfacet
facet normal 0.970366 0.241641 0.000000
outer loop
vertex 0.048896 0.398858 0.475417
vertex 0.048896 0.398858 0.439049
vertex 0.039629 0.436072 0.499696
endloop
endfacet
facet normal 0.934258 0.000000 0.356597
outer loop
vertex 0.048896 0.398858 0.475417
vertex 0.039629 0.436072 0.499696
vertex 0.048896 0.171675 0.475417
endloop
endfacet
facet normal 1.000000 -0.000000 0.000000
outer loop
vertex 0.048896 0.398858 0.475417
vertex 0.048896 0.171675 0.475417
vertex 0.048896 0.398858 0.439049
endloop
endfacet
facet normal 0.118423 0.751115 -0.649463
outer loop
vertex 0.039629 0.436072 0.480398
vertex 0.048896 0.398858 0.439049
vertex -0.002394 0.398858 0.429697
endloop
endfacet
facet normal 0.000000 0.806154 -0.591706
outer loop
vertex 0.039629 0.436072 0.480398
vertex -0.002394 0.398858 0.429697
vertex -0.002394 0.436072 0.480398
endloop
endfacet
facet normal 0.000000 1.000000 0.000000
outer loop
vertex 0.039629 0.436072 0.480398
vertex -0.002394 0.436072 0.480398
vertex 0.039629 0.436072 0.499696
endloop
endfacet
facet normal 0.970366 0.241640 0.000000
outer loop
vertex 0.039629 0.436072 0.480398
vertex 0.039629 0.436072 0.499696
vertex 0.048896 0.398858 0.439049
endloop
endfacet
facet normal 0.000000 0.000000 1.000000
outer loop
vertex -0.068552 0.365779 0.499696
vertex -0.068552 0.167305 0.499696
vertex -0.002394 0.436072 0.499696
endloop
endfacet
facet normal -0.728200 0.685365 0.000000
outer loop
vertex -0.068552 0.365779 0.499696
vertex -0.002394 0.436072 0.499696
vertex -0.068552 0.365779 0.429697
endloop
endfacet
facet normal -1.000000 0.000000 0.000000
outer loop
vertex -0.068552 0.365779 0.499696
vertex -0.068552 0.365779 0.429697
vertex -0.068552 0.171675 0.439049
endloop
endfacet
facet normal -1.000000 0.000000 0.000000
outer loop
vertex -0.068552 0.365779 0.499696
vertex -0.068552 0.171675 0.439049
vertex -0.068552 0.167305 0.499696
endloop
endfacet
endsolid /home/febert/Desktop/arm_base027
