solid /home/febert/Desktop/arm_base038
facet normal 0.042460 0.000000 0.999098
outer loop
vertex 0.510331 -0.494275 -0.042477
vertex 0.557392 -0.343040 -0.044477
vertex 0.510331 0.026719 -0.042477
endloop
endfacet
facet normal -0.000000 0.000000 1.000000
outer loop
vertex 0.510331 -0.494275 -0.042477
vertex 0.510331 0.026719 -0.042477
vertex 0.096843 0.043259 -0.042477
endloop
endfacet
facet normal 0.107346 0.008285 0.994187
outer loop
vertex 0.557392 -0.103043 -0.046477
vertex 0.510331 0.026719 -0.042477
vertex 0.557392 -0.343040 -0.044477
endloop
endfacet
facet normal 0.954838 -0.297127 0.000000
outer loop
vertex 0.510331 -0.494275 -0.044477
vertex 0.557392 -0.343040 -0.044477
vertex 0.510331 -0.494275 -0.042477
endloop
endfacet
facet normal 0.000000 -1.000000 0.000000
outer loop
vertex 0.510331 -0.494275 -0.044477
vertex 0.510331 -0.494275 -0.042477
vertex 0.105113 -0.494275 -0.044477
endloop
endfacet
facet normal 0.026770 -0.008330 -0.999607
outer loop
vertex 0.510331 -0.494275 -0.044477
vertex 0.557392 -0.103043 -0.046477
vertex 0.557392 -0.343040 -0.044477
endloop
endfacet
facet normal 0.000000 -0.005112 -0.999987
outer loop
vertex 0.510331 -0.494275 -0.044477
vertex 0.105113 -0.494275 -0.044477
vertex 0.557392 -0.103043 -0.046477
endloop
endfacet
facet normal 0.000000 -1.000000 0.000000
outer loop
vertex 0.105113 -0.494275 -0.042477
vertex 0.105113 -0.494275 -0.044477
vertex 0.510331 -0.494275 -0.042477
endloop
endfacet
facet normal 0.000000 0.000000 1.000000
outer loop
vertex 0.105113 -0.494275 -0.042477
vertex 0.510331 -0.494275 -0.042477
vertex 0.096843 0.043259 -0.042477
endloop
endfacet
facet normal 0.000000 0.000000 1.000000
outer loop
vertex 0.096843 -0.378498 -0.042477
vertex 0.105113 -0.494275 -0.042477
vertex 0.096843 0.043259 -0.042477
endloop
endfacet
facet normal -0.997459 -0.071247 0.000000
outer loop
vertex 0.096843 -0.378498 -0.042477
vertex 0.105113 -0.494275 -0.044477
vertex 0.105113 -0.494275 -0.042477
endloop
endfacet
facet normal 0.000000 0.000000 1.000000
outer loop
vertex 0.129922 0.043259 -0.042477
vertex 0.096843 0.043259 -0.042477
vertex 0.510331 0.026719 -0.042477
endloop
endfacet
facet normal 0.940084 0.340944 0.000000
outer loop
vertex 0.510331 0.026719 -0.044477
vertex 0.510331 0.026719 -0.042477
vertex 0.557392 -0.103043 -0.046477
endloop
endfacet
facet normal 0.000681 0.015658 -0.999877
outer loop
vertex 0.510331 0.026719 -0.044477
vertex 0.557392 -0.103043 -0.046477
vertex 0.129922 0.043259 -0.044477
endloop
endfacet
facet normal 0.043437 0.999056 0.000000
outer loop
vertex 0.510331 0.026719 -0.044477
vertex 0.129922 0.043259 -0.042477
vertex 0.510331 0.026719 -0.042477
endloop
endfacet
facet normal 0.043437 0.999056 0.000000
outer loop
vertex 0.510331 0.026719 -0.044477
vertex 0.129922 0.043259 -0.044477
vertex 0.129922 0.043259 -0.042477
endloop
endfacet
facet normal 0.000000 0.013669 -0.999907
outer loop
vertex 0.096843 0.043259 -0.044477
vertex 0.129922 0.043259 -0.044477
vertex 0.557392 -0.103043 -0.046477
endloop
endfacet
facet normal 0.000000 1.000000 0.000000
outer loop
vertex 0.096843 0.043259 -0.044477
vertex 0.129922 0.043259 -0.042477
vertex 0.129922 0.043259 -0.044477
endloop
endfacet
facet normal 0.000000 1.000000 0.000000
outer loop
vertex 0.096843 0.043259 -0.044477
vertex 0.096843 0.043259 -0.042477
vertex 0.129922 0.043259 -0.042477
endloop
endfacet
facet normal -0.997459 -0.071247 0.000000
outer loop
vertex 0.096843 -0.378498 -0.044477
vertex 0.105113 -0.494275 -0.044477
vertex 0.096843 -0.378498 -0.042477
endloop
endfacet
facet normal -1.000000 0.000000 0.000000
outer loop
vertex 0.096843 -0.378498 -0.044477
vertex 0.096843 -0.378498 -0.042477
vertex 0.096843 0.043259 -0.042477
endloop
endfacet
facet normal -1.000000 0.000000 0.000000
outer loop
vertex 0.096843 -0.378498 -0.044477
vertex 0.096843 0.043259 -0.042477
vertex 0.096843 0.043259 -0.044477
endloop
endfacet
facet normal -0.004343 -0.000000 -0.999991
outer loop
vertex 0.096843 -0.378498 -0.044477
vertex 0.096843 0.043259 -0.044477
vertex 0.557392 -0.103043 -0.046477
endloop
endfacet
facet normal -0.004165 -0.000298 -0.999991
outer loop
vertex 0.096843 -0.378498 -0.044477
vertex 0.557392 -0.103043 -0.046477
vertex 0.105113 -0.494275 -0.044477
endloop
endfacet
endsolid /home/febert/Desktop/arm_base038
