solid /home/febert/Desktop/arm_base046
facet normal 1.000000 0.000000 0.000000
outer loop
vertex 0.031126 -0.091600 0.724014
vertex 0.031126 -0.091600 0.644015
vertex 0.031126 -0.056600 0.644015
endloop
endfacet
facet normal 0.000000 -1.000000 0.000000
outer loop
vertex -0.368869 -0.091600 0.644015
vertex 0.031126 -0.091600 0.644015
vertex 0.031126 -0.091600 0.724014
endloop
endfacet
facet normal 1.000000 0.000000 0.000000
outer loop
vertex 0.031126 -0.056600 0.724014
vertex 0.031126 -0.091600 0.724014
vertex 0.031126 -0.056600 0.644015
endloop
endfacet
facet normal 0.000000 -1.000000 0.000000
outer loop
vertex -0.368869 -0.091600 0.724014
vertex -0.368869 -0.091600 0.644015
vertex 0.031126 -0.091600 0.724014
endloop
endfacet
facet normal 0.000000 0.000000 1.000000
outer loop
vertex -0.368869 -0.091600 0.724014
vertex 0.031126 -0.091600 0.724014
vertex 0.031126 -0.056600 0.724014
endloop
endfacet
facet normal 0.031446 0.000000 -0.999505
outer loop
vertex -0.175209 -0.048639 0.637523
vertex 0.031126 -0.056600 0.644015
vertex 0.031126 -0.091600 0.644015
endloop
endfacet
facet normal 0.038554 0.999256 0.000000
outer loop
vertex -0.175209 -0.048639 0.637523
vertex 0.031126 -0.056600 0.724014
vertex 0.031126 -0.056600 0.644015
endloop
endfacet
facet normal -0.937923 -0.346844 0.000000
outer loop
vertex -0.382802 -0.053922 0.637523
vertex -0.368869 -0.091600 0.644015
vertex -0.368869 -0.091600 0.724014
endloop
endfacet
facet normal 0.003396 -0.133446 -0.991050
outer loop
vertex -0.382802 -0.053922 0.637523
vertex -0.175209 -0.048639 0.637523
vertex 0.031126 -0.091600 0.644015
endloop
endfacet
facet normal 0.000000 -0.169795 -0.985480
outer loop
vertex -0.382802 -0.053922 0.637523
vertex 0.031126 -0.091600 0.644015
vertex -0.368869 -0.091600 0.644015
endloop
endfacet
facet normal 0.000000 0.000000 1.000000
outer loop
vertex -0.368869 -0.056600 0.724014
vertex -0.368869 -0.091600 0.724014
vertex 0.031126 -0.056600 0.724014
endloop
endfacet
facet normal 0.000000 0.916736 0.399494
outer loop
vertex -0.368869 -0.056600 0.724014
vertex 0.031126 -0.056600 0.724014
vertex -0.382802 -0.047659 0.703497
endloop
endfacet
facet normal -0.827275 0.000000 0.561797
outer loop
vertex -0.368869 -0.056600 0.724014
vertex -0.382802 -0.047659 0.703497
vertex -0.368869 -0.091600 0.724014
endloop
endfacet
facet normal 0.000000 0.999890 -0.014854
outer loop
vertex -0.220368 -0.047659 0.703497
vertex -0.175209 -0.048639 0.637523
vertex -0.382802 -0.047659 0.703497
endloop
endfacet
facet normal 0.000000 0.916736 0.399494
outer loop
vertex -0.220368 -0.047659 0.703497
vertex -0.382802 -0.047659 0.703497
vertex 0.031126 -0.056600 0.724014
endloop
endfacet
facet normal -0.942515 -0.334105 0.006290
outer loop
vertex -0.382802 -0.052737 0.700441
vertex -0.382802 -0.053922 0.637523
vertex -0.368869 -0.091600 0.724014
endloop
endfacet
facet normal -0.944946 -0.168713 0.280381
outer loop
vertex -0.382802 -0.052737 0.700441
vertex -0.368869 -0.091600 0.724014
vertex -0.382802 -0.047659 0.703497
endloop
endfacet
facet normal -1.000000 0.000000 0.000000
outer loop
vertex -0.382802 -0.052737 0.700441
vertex -0.382802 -0.047659 0.703497
vertex -0.382802 -0.053922 0.637523
endloop
endfacet
facet normal -1.000000 0.000000 0.000000
outer loop
vertex -0.382802 -0.049922 0.637523
vertex -0.382802 -0.053922 0.637523
vertex -0.382802 -0.047659 0.703497
endloop
endfacet
facet normal -0.006177 0.999393 -0.034282
outer loop
vertex -0.382802 -0.049922 0.637523
vertex -0.382802 -0.047659 0.703497
vertex -0.175209 -0.048639 0.637523
endloop
endfacet
facet normal -0.000001 0.000000 -1.000000
outer loop
vertex -0.382802 -0.049922 0.637523
vertex -0.175209 -0.048639 0.637523
vertex -0.382802 -0.053922 0.637523
endloop
endfacet
facet normal 0.034132 0.999271 0.017085
outer loop
vertex -0.175209 -0.048639 0.670602
vertex -0.220368 -0.047659 0.703497
vertex 0.031126 -0.056600 0.724014
endloop
endfacet
facet normal 0.038554 0.999257 -0.000000
outer loop
vertex -0.175209 -0.048639 0.670602
vertex 0.031126 -0.056600 0.724014
vertex -0.175209 -0.048639 0.637523
endloop
endfacet
facet normal 0.021698 0.999765 0.000000
outer loop
vertex -0.175209 -0.048639 0.670602
vertex -0.175209 -0.048639 0.637523
vertex -0.220368 -0.047659 0.703497
endloop
endfacet
endsolid /home/febert/Desktop/arm_base046
