solid /home/febert/Desktop/arm_base036
facet normal 1.000000 0.000000 0.000000
outer loop
vertex 0.525160 0.026719 0.008323
vertex 0.525160 0.026719 -0.044477
vertex 0.525160 0.051503 0.008323
endloop
endfacet
facet normal 0.000000 0.000000 1.000000
outer loop
vertex 0.525160 0.026719 0.008323
vertex 0.525160 0.051503 0.008323
vertex 0.085165 0.051503 0.008323
endloop
endfacet
facet normal 0.000000 -1.000000 0.000000
outer loop
vertex 0.129922 0.026719 -0.044477
vertex 0.525160 0.026719 -0.044477
vertex 0.525160 0.026719 0.008323
endloop
endfacet
facet normal 0.000000 1.000000 -0.000000
outer loop
vertex 0.510331 0.051503 -0.044477
vertex 0.085165 0.051503 0.008323
vertex 0.525160 0.051503 0.008323
endloop
endfacet
facet normal 0.000000 0.000000 -1.000000
outer loop
vertex 0.510331 0.051503 -0.044477
vertex 0.525160 0.026719 -0.044477
vertex 0.129922 0.026719 -0.044477
endloop
endfacet
facet normal 0.000000 0.000000 1.000000
outer loop
vertex 0.085165 0.043259 0.008323
vertex 0.525160 0.026719 0.008323
vertex 0.085165 0.051503 0.008323
endloop
endfacet
facet normal 0.000000 1.000000 0.000000
outer loop
vertex 0.525160 0.051503 -0.044477
vertex 0.510331 0.051503 -0.044477
vertex 0.525160 0.051503 0.008323
endloop
endfacet
facet normal 1.000000 0.000000 0.000000
outer loop
vertex 0.525160 0.051503 -0.044477
vertex 0.525160 0.051503 0.008323
vertex 0.525160 0.026719 -0.044477
endloop
endfacet
facet normal 0.000000 0.000000 -1.000000
outer loop
vertex 0.525160 0.051503 -0.044477
vertex 0.525160 0.026719 -0.044477
vertex 0.510331 0.051503 -0.044477
endloop
endfacet
facet normal 0.000000 0.000000 -1.000000
outer loop
vertex 0.085165 0.051503 -0.044477
vertex 0.510331 0.051503 -0.044477
vertex 0.129922 0.026719 -0.044477
endloop
endfacet
facet normal 0.000000 1.000000 0.000000
outer loop
vertex 0.085165 0.051503 -0.044477
vertex 0.085165 0.051503 0.008323
vertex 0.510331 0.051503 -0.044477
endloop
endfacet
facet normal -1.000000 0.000000 0.000000
outer loop
vertex 0.085165 0.051503 -0.044477
vertex 0.085165 0.043259 0.008323
vertex 0.085165 0.051503 0.008323
endloop
endfacet
facet normal -0.346626 -0.938003 0.000000
outer loop
vertex 0.129922 0.026719 -0.042477
vertex 0.085165 0.043259 0.008323
vertex 0.129922 0.026719 -0.044477
endloop
endfacet
facet normal 0.000000 0.000000 -1.000000
outer loop
vertex 0.085165 0.043259 -0.044477
vertex 0.085165 0.051503 -0.044477
vertex 0.129922 0.026719 -0.044477
endloop
endfacet
facet normal -0.346628 -0.938003 0.000000
outer loop
vertex 0.085165 0.043259 -0.044477
vertex 0.129922 0.026719 -0.044477
vertex 0.085165 0.043259 0.008323
endloop
endfacet
facet normal -1.000000 0.000000 0.000000
outer loop
vertex 0.085165 0.043259 -0.044477
vertex 0.085165 0.043259 0.008323
vertex 0.085165 0.051503 -0.044477
endloop
endfacet
facet normal 0.000000 0.000000 1.000000
outer loop
vertex 0.523160 0.026719 0.008323
vertex 0.525160 0.026719 0.008323
vertex 0.085165 0.043259 0.008323
endloop
endfacet
facet normal -0.036221 -0.959204 0.280386
outer loop
vertex 0.523160 0.026719 0.008323
vertex 0.085165 0.043259 0.008323
vertex 0.129922 0.026719 -0.042477
endloop
endfacet
facet normal 0.000000 -1.000000 0.000000
outer loop
vertex 0.523160 0.026719 0.008323
vertex 0.129922 0.026719 -0.042477
vertex 0.129922 0.026719 -0.044477
endloop
endfacet
facet normal 0.000000 -1.000000 0.000000
outer loop
vertex 0.523160 0.026719 0.008323
vertex 0.129922 0.026719 -0.044477
vertex 0.525160 0.026719 0.008323
endloop
endfacet
endsolid /home/febert/Desktop/arm_base036
