solid /home/febert/Desktop/arm_base037
facet normal 1.000000 0.000000 0.000000
outer loop
vertex 0.525160 -0.518489 0.008323
vertex 0.525160 -0.518489 -0.044477
vertex 0.525160 -0.494275 -0.044477
endloop
endfacet
facet normal 0.000000 -1.000000 0.000000
outer loop
vertex 0.085165 -0.518489 -0.044477
vertex 0.525160 -0.518489 -0.044477
vertex 0.525160 -0.518489 0.008323
endloop
endfacet
facet normal 0.000000 -0.000000 -1.000000
outer loop
vertex 0.085165 -0.518489 -0.044477
vertex 0.525160 -0.494275 -0.044477
vertex 0.525160 -0.518489 -0.044477
endloop
endfacet
facet normal 1.000000 0.000000 0.000000
outer loop
vertex 0.525160 -0.494275 0.008323
vertex 0.525160 -0.518489 0.008323
vertex 0.525160 -0.494275 -0.044477
endloop
endfacet
facet normal 0.000000 1.000000 0.000000
outer loop
vertex 0.525160 -0.494275 0.008323
vertex 0.525160 -0.494275 -0.044477
vertex 0.085165 -0.494275 0.008323
endloop
endfacet
facet normal 0.000000 0.000000 1.000000
outer loop
vertex 0.525160 -0.494275 0.008323
vertex 0.085165 -0.494275 0.008323
vertex 0.525160 -0.518489 0.008323
endloop
endfacet
facet normal 0.000000 -1.000000 0.000000
outer loop
vertex 0.085165 -0.518489 0.008323
vertex 0.085165 -0.518489 -0.044477
vertex 0.525160 -0.518489 0.008323
endloop
endfacet
facet normal 0.000000 0.000000 1.000000
outer loop
vertex 0.085165 -0.518489 0.008323
vertex 0.525160 -0.518489 0.008323
vertex 0.085165 -0.494275 0.008323
endloop
endfacet
facet normal -1.000000 -0.000001 0.000000
outer loop
vertex 0.085165 -0.518489 0.008323
vertex 0.085165 -0.494275 0.008323
vertex 0.085165 -0.518489 -0.044477
endloop
endfacet
facet normal -1.000000 0.000000 0.000000
outer loop
vertex 0.085165 -0.494275 -0.044477
vertex 0.085165 -0.518489 -0.044477
vertex 0.085165 -0.494275 0.008323
endloop
endfacet
facet normal 0.000000 1.000000 0.000000
outer loop
vertex 0.085165 -0.494275 -0.044477
vertex 0.085165 -0.494275 0.008323
vertex 0.525160 -0.494275 -0.044477
endloop
endfacet
facet normal 0.000000 -0.000000 -1.000000
outer loop
vertex 0.085165 -0.494275 -0.044477
vertex 0.525160 -0.494275 -0.044477
vertex 0.085165 -0.518489 -0.044477
endloop
endfacet
endsolid /home/febert/Desktop/arm_base037
