solid /home/febert/Desktop/arm_base057
facet normal 0.999698 0.000000 0.024595
outer loop
vertex 0.039629 0.156675 0.499696
vertex 0.047225 0.171675 0.190957
vertex 0.039629 0.167305 0.499696
endloop
endfacet
facet normal 0.000000 0.999900 0.014152
outer loop
vertex 0.039629 0.167305 0.499696
vertex 0.047225 0.171675 0.190957
vertex -0.159519 0.167305 0.499696
endloop
endfacet
facet normal 0.026802 0.000000 0.999641
outer loop
vertex -0.165862 0.148640 0.505206
vertex 0.039629 0.156675 0.499696
vertex 0.039629 0.167305 0.499696
endloop
endfacet
facet normal 0.000000 0.283113 0.959087
outer loop
vertex -0.165862 0.148640 0.505206
vertex 0.039629 0.167305 0.499696
vertex -0.159519 0.167305 0.499696
endloop
endfacet
facet normal 0.000000 0.000000 -1.000000
outer loop
vertex 0.039629 0.156675 0.190957
vertex -0.159519 0.156675 0.190957
vertex 0.047225 0.171675 0.190957
endloop
endfacet
facet normal 0.892140 -0.451759 0.000000
outer loop
vertex 0.039629 0.156675 0.190957
vertex 0.047225 0.171675 0.190957
vertex 0.039629 0.156675 0.499696
endloop
endfacet
facet normal 0.000000 -0.999673 -0.025559
outer loop
vertex 0.039629 0.156675 0.190957
vertex -0.165862 0.148640 0.505206
vertex -0.159519 0.156675 0.190957
endloop
endfacet
facet normal 0.039070 -0.999237 0.000000
outer loop
vertex 0.039629 0.156675 0.190957
vertex 0.039629 0.156675 0.499696
vertex -0.165862 0.148640 0.505206
endloop
endfacet
facet normal 0.000000 0.999900 0.014152
outer loop
vertex -0.159519 0.171675 0.190957
vertex -0.159519 0.167305 0.499696
vertex 0.047225 0.171675 0.190957
endloop
endfacet
facet normal 0.000000 0.000000 -1.000000
outer loop
vertex -0.159519 0.171675 0.190957
vertex 0.047225 0.171675 0.190957
vertex -0.159519 0.156675 0.190957
endloop
endfacet
facet normal -0.946394 0.322983 0.004571
outer loop
vertex -0.159519 0.171675 0.190957
vertex -0.165862 0.148640 0.505206
vertex -0.159519 0.167305 0.499696
endloop
endfacet
facet normal -0.999796 0.000000 -0.020181
outer loop
vertex -0.159519 0.171675 0.190957
vertex -0.159519 0.156675 0.190957
vertex -0.165862 0.148640 0.505206
endloop
endfacet
endsolid /home/febert/Desktop/arm_base057
