solid /home/febert/Desktop/arm_base014
facet normal 0.999657 0.025338 -0.006576
outer loop
vertex -0.175636 0.081296 0.819458
vertex -0.169226 0.010850 1.522388
vertex -0.173767 0.007545 0.819467
endloop
endfacet
facet normal 0.969380 -0.245513 -0.005107
outer loop
vertex -0.184846 -0.036201 0.819458
vertex -0.173767 0.007545 0.819467
vertex -0.169226 0.010850 1.522388
endloop
endfacet
facet normal 0.949069 -0.315068 0.000000
outer loop
vertex -0.184846 -0.036201 0.819458
vertex -0.169226 0.010850 1.522388
vertex -0.184846 -0.036201 1.514117
endloop
endfacet
facet normal 0.001169 -0.000093 -0.999999
outer loop
vertex -0.184846 -0.036201 0.819458
vertex -0.175636 0.081296 0.819458
vertex -0.173767 0.007545 0.819467
endloop
endfacet
facet normal 0.995886 0.090617 -0.000000
outer loop
vertex -0.175636 0.081296 1.522387
vertex -0.169226 0.010850 1.522388
vertex -0.175636 0.081296 0.819458
endloop
endfacet
facet normal 0.000000 -0.495155 0.868805
outer loop
vertex -0.184328 0.043259 1.559403
vertex -0.219277 0.043259 1.559403
vertex -0.184846 -0.036201 1.514117
endloop
endfacet
facet normal 0.723664 -0.345284 0.597570
outer loop
vertex -0.184328 0.043259 1.559403
vertex -0.184846 -0.036201 1.514117
vertex -0.169226 0.010850 1.522388
endloop
endfacet
facet normal -1.000000 0.000000 0.000000
outer loop
vertex -0.219506 0.055970 0.819458
vertex -0.219506 -0.025111 0.819458
vertex -0.219506 -0.025111 1.514117
endloop
endfacet
facet normal -0.000005 0.000000 -1.000000
outer loop
vertex -0.219506 0.055970 0.819458
vertex -0.184846 -0.036201 0.819458
vertex -0.219506 -0.025111 0.819458
endloop
endfacet
facet normal -0.158047 -0.987432 0.000000
outer loop
vertex -0.204189 -0.033105 0.819458
vertex -0.184846 -0.036201 0.819458
vertex -0.184846 -0.036201 1.514117
endloop
endfacet
facet normal 0.000000 0.000000 -1.000000
outer loop
vertex -0.204189 -0.033105 0.819458
vertex -0.219506 -0.025111 0.819458
vertex -0.184846 -0.036201 0.819458
endloop
endfacet
facet normal -0.462683 -0.886524 0.000000
outer loop
vertex -0.204189 -0.033105 0.819458
vertex -0.219506 -0.025111 1.514117
vertex -0.219506 -0.025111 0.819458
endloop
endfacet
facet normal 0.881842 0.471546 -0.000000
outer loop
vertex -0.177376 0.084550 1.522387
vertex -0.175636 0.081296 1.522387
vertex -0.175636 0.081296 0.819458
endloop
endfacet
facet normal 0.925900 0.000000 0.377769
outer loop
vertex -0.184328 0.059798 1.559403
vertex -0.184328 0.043259 1.559403
vertex -0.169226 0.010850 1.522388
endloop
endfacet
facet normal 0.957372 0.087117 0.275409
outer loop
vertex -0.184328 0.059798 1.559403
vertex -0.169226 0.010850 1.522388
vertex -0.175636 0.081296 1.522387
endloop
endfacet
facet normal 0.794712 0.424949 0.433417
outer loop
vertex -0.184328 0.059798 1.559403
vertex -0.175636 0.081296 1.522387
vertex -0.177376 0.084550 1.522387
endloop
endfacet
facet normal 0.037629 0.827413 0.560331
outer loop
vertex -0.184328 0.059798 1.559403
vertex -0.177376 0.084550 1.522387
vertex -0.193690 0.085292 1.522387
endloop
endfacet
facet normal 0.000000 0.000000 1.000000
outer loop
vertex -0.184328 0.059798 1.559403
vertex -0.219277 0.043259 1.559403
vertex -0.184328 0.043259 1.559403
endloop
endfacet
facet normal -0.083281 -0.520434 0.849831
outer loop
vertex -0.204189 -0.033105 1.514117
vertex -0.184846 -0.036201 1.514117
vertex -0.219277 0.043259 1.559403
endloop
endfacet
facet normal -0.276630 -0.530025 0.801592
outer loop
vertex -0.204189 -0.033105 1.514117
vertex -0.219277 0.043259 1.559403
vertex -0.219506 -0.025111 1.514117
endloop
endfacet
facet normal -0.158046 -0.987432 0.000000
outer loop
vertex -0.204189 -0.033105 1.514117
vertex -0.204189 -0.033105 0.819458
vertex -0.184846 -0.036201 1.514117
endloop
endfacet
facet normal -0.462684 -0.886523 0.000000
outer loop
vertex -0.204189 -0.033105 1.514117
vertex -0.219506 -0.025111 1.514117
vertex -0.204189 -0.033105 0.819458
endloop
endfacet
facet normal 0.000000 0.823575 0.567207
outer loop
vertex -0.219277 0.059798 1.559403
vertex -0.184328 0.059798 1.559403
vertex -0.193690 0.085292 1.522387
endloop
endfacet
facet normal 0.000000 0.000000 1.000000
outer loop
vertex -0.219277 0.059798 1.559403
vertex -0.219277 0.043259 1.559403
vertex -0.184328 0.059798 1.559403
endloop
endfacet
facet normal -0.999997 0.002539 0.000296
outer loop
vertex -0.219277 0.059798 1.559403
vertex -0.219506 0.055970 0.819458
vertex -0.219506 -0.025111 1.514117
endloop
endfacet
facet normal -0.999987 0.000000 0.005057
outer loop
vertex -0.219277 0.059798 1.559403
vertex -0.219506 -0.025111 1.514117
vertex -0.219277 0.043259 1.559403
endloop
endfacet
facet normal 0.045435 0.998967 -0.000000
outer loop
vertex -0.193690 0.085292 0.819458
vertex -0.193690 0.085292 1.522387
vertex -0.177376 0.084550 1.522387
endloop
endfacet
facet normal -0.705813 0.708398 -0.000000
outer loop
vertex -0.193690 0.085292 0.819458
vertex -0.219277 0.059798 1.559403
vertex -0.193690 0.085292 1.522387
endloop
endfacet
facet normal -0.750549 0.660807 -0.003187
outer loop
vertex -0.193690 0.085292 0.819458
vertex -0.219506 0.055970 0.819458
vertex -0.219277 0.059798 1.559403
endloop
endfacet
facet normal 0.045435 0.998967 -0.000000
outer loop
vertex -0.177376 0.084550 0.819458
vertex -0.193690 0.085292 0.819458
vertex -0.177376 0.084550 1.522387
endloop
endfacet
facet normal 0.881842 0.471546 -0.000000
outer loop
vertex -0.177376 0.084550 0.819458
vertex -0.177376 0.084550 1.522387
vertex -0.175636 0.081296 0.819458
endloop
endfacet
facet normal 0.000007 0.000000 -1.000000
outer loop
vertex -0.177376 0.084550 0.819458
vertex -0.219506 0.055970 0.819458
vertex -0.193690 0.085292 0.819458
endloop
endfacet
facet normal 0.000064 0.000000 -1.000000
outer loop
vertex -0.177376 0.084550 0.819458
vertex -0.175636 0.081296 0.819458
vertex -0.184846 -0.036201 0.819458
endloop
endfacet
facet normal 0.000000 0.000000 -1.000000
outer loop
vertex -0.177376 0.084550 0.819458
vertex -0.184846 -0.036201 0.819458
vertex -0.219506 0.055970 0.819458
endloop
endfacet
endsolid /home/febert/Desktop/arm_base014
