solid /home/febert/Desktop/arm_base004
facet normal 0.988330 0.017172 0.151359
outer loop
vertex -0.200868 0.151692 0.623515
vertex -0.214341 0.234325 0.702115
vertex -0.212201 0.107509 0.702527
endloop
endfacet
facet normal 1.000000 -0.000631 -0.000323
outer loop
vertex -0.200868 0.225193 0.479697
vertex -0.200868 0.151692 0.623515
vertex -0.200939 0.111988 0.480388
endloop
endfacet
facet normal -0.801740 0.208882 0.559984
outer loop
vertex -0.351504 0.172675 0.645695
vertex -0.300105 0.225193 0.699694
vertex -0.300105 0.236674 0.695412
endloop
endfacet
facet normal -0.724329 0.000000 0.689455
outer loop
vertex -0.351504 0.172675 0.645695
vertex -0.351504 0.032677 0.645695
vertex -0.300105 0.225193 0.699694
endloop
endfacet
facet normal 0.860941 -0.508706 0.000000
outer loop
vertex -0.219506 0.068068 0.499696
vertex -0.219506 0.068068 0.659695
vertex -0.286505 -0.045322 0.513477
endloop
endfacet
facet normal 0.921076 -0.389382 0.000000
outer loop
vertex -0.219506 0.068068 0.499696
vertex -0.200939 0.111988 0.480388
vertex -0.219506 0.068068 0.659695
endloop
endfacet
facet normal 0.924615 -0.380896 0.002445
outer loop
vertex -0.201049 0.112640 0.623515
vertex -0.219506 0.068068 0.659695
vertex -0.200939 0.111988 0.480388
endloop
endfacet
facet normal 0.947228 -0.299514 0.114239
outer loop
vertex -0.201049 0.112640 0.623515
vertex -0.212201 0.107509 0.702527
vertex -0.219506 0.068068 0.659695
endloop
endfacet
facet normal 0.990217 -0.004590 0.139461
outer loop
vertex -0.201049 0.112640 0.623515
vertex -0.200868 0.151692 0.623515
vertex -0.212201 0.107509 0.702527
endloop
endfacet
facet normal 0.999989 -0.004635 0.000788
outer loop
vertex -0.201049 0.112640 0.623515
vertex -0.200939 0.111988 0.480388
vertex -0.200868 0.151692 0.623515
endloop
endfacet
facet normal 0.413829 -0.801403 0.431855
outer loop
vertex -0.283565 0.034989 0.659695
vertex -0.286505 -0.045322 0.513477
vertex -0.219506 0.068068 0.659695
endloop
endfacet
facet normal -0.007347 -0.122536 -0.992437
outer loop
vertex -0.283565 -0.039439 0.499696
vertex -0.295910 -0.038699 0.499696
vertex -0.200939 0.111988 0.480388
endloop
endfacet
facet normal -0.054772 -0.914043 -0.401903
outer loop
vertex -0.283565 -0.039439 0.499696
vertex -0.286505 -0.045322 0.513477
vertex -0.295910 -0.038699 0.499696
endloop
endfacet
facet normal 0.858522 -0.511563 -0.035261
outer loop
vertex -0.283565 -0.039439 0.499696
vertex -0.219506 0.068068 0.499696
vertex -0.286505 -0.045322 0.513477
endloop
endfacet
facet normal 0.813757 -0.484886 -0.320446
outer loop
vertex -0.283565 -0.039439 0.499696
vertex -0.200939 0.111988 0.480388
vertex -0.219506 0.068068 0.499696
endloop
endfacet
facet normal -0.575782 -0.817603 0.000000
outer loop
vertex -0.295910 -0.038699 0.513477
vertex -0.295910 -0.038699 0.499696
vertex -0.286505 -0.045322 0.513477
endloop
endfacet
facet normal -0.564677 -0.801841 0.195427
outer loop
vertex -0.295910 -0.038699 0.513477
vertex -0.286505 -0.045322 0.513477
vertex -0.351504 0.032677 0.645695
endloop
endfacet
facet normal -0.788924 -0.614491 0.000000
outer loop
vertex -0.295910 -0.038699 0.513477
vertex -0.351504 0.032677 0.645695
vertex -0.295910 -0.038699 0.499696
endloop
endfacet
facet normal -0.094449 0.347932 0.932750
outer loop
vertex -0.225677 0.234674 0.703694
vertex -0.300105 0.236674 0.695412
vertex -0.300105 0.225193 0.699694
endloop
endfacet
facet normal 0.138134 0.005546 0.990398
outer loop
vertex -0.225677 0.234674 0.703694
vertex -0.212201 0.107509 0.702527
vertex -0.214341 0.234325 0.702115
endloop
endfacet
facet normal -0.334336 -0.170714 0.926864
outer loop
vertex -0.225677 0.101147 0.703694
vertex -0.300105 0.225193 0.699694
vertex -0.351504 0.032677 0.645695
endloop
endfacet
facet normal -0.053664 0.000000 0.998559
outer loop
vertex -0.225677 0.101147 0.703694
vertex -0.225677 0.234674 0.703694
vertex -0.300105 0.225193 0.699694
endloop
endfacet
facet normal 0.086302 0.000000 0.996269
outer loop
vertex -0.225677 0.101147 0.703694
vertex -0.212201 0.107509 0.702527
vertex -0.225677 0.234674 0.703694
endloop
endfacet
facet normal 0.370166 -0.716847 0.590853
outer loop
vertex -0.225677 0.101147 0.703694
vertex -0.283565 0.034989 0.659695
vertex -0.219506 0.068068 0.659695
endloop
endfacet
facet normal 0.386305 -0.710416 0.588283
outer loop
vertex -0.225677 0.101147 0.703694
vertex -0.219506 0.068068 0.659695
vertex -0.212201 0.107509 0.702527
endloop
endfacet
facet normal 0.992737 0.103450 0.061410
outer loop
vertex -0.200868 0.225193 0.499696
vertex -0.214341 0.234325 0.702115
vertex -0.200868 0.151692 0.623515
endloop
endfacet
facet normal 1.000000 0.000000 0.000000
outer loop
vertex -0.200868 0.225193 0.499696
vertex -0.200868 0.151692 0.623515
vertex -0.200868 0.225193 0.479697
endloop
endfacet
facet normal -0.827891 0.535641 0.166389
outer loop
vertex -0.381442 0.167473 0.513480
vertex -0.351504 0.172675 0.645695
vertex -0.300105 0.236674 0.695412
endloop
endfacet
facet normal -0.967049 0.254564 -0.003497
outer loop
vertex -0.381442 0.167473 0.513480
vertex -0.381365 0.167311 0.480398
vertex -0.384156 0.156709 0.480397
endloop
endfacet
facet normal -0.647989 0.761631 -0.005241
outer loop
vertex -0.381442 0.167473 0.513480
vertex -0.300105 0.236674 0.513477
vertex -0.381365 0.167311 0.480398
endloop
endfacet
facet normal -0.647998 0.761642 0.000000
outer loop
vertex -0.381442 0.167473 0.513480
vertex -0.300105 0.236674 0.695412
vertex -0.300105 0.236674 0.513477
endloop
endfacet
facet normal -0.084167 -0.875799 0.475281
outer loop
vertex -0.296505 0.034989 0.659695
vertex -0.351504 0.032677 0.645695
vertex -0.286505 -0.045322 0.513477
endloop
endfacet
facet normal 0.000000 -0.876491 0.481418
outer loop
vertex -0.296505 0.034989 0.659695
vertex -0.286505 -0.045322 0.513477
vertex -0.283565 0.034989 0.659695
endloop
endfacet
facet normal -0.214353 -0.371339 0.903416
outer loop
vertex -0.296505 0.034989 0.659695
vertex -0.225677 0.101147 0.703694
vertex -0.351504 0.032677 0.645695
endloop
endfacet
facet normal 0.000000 -0.553772 0.832668
outer loop
vertex -0.296505 0.034989 0.659695
vertex -0.283565 0.034989 0.659695
vertex -0.225677 0.101147 0.703694
endloop
endfacet
facet normal -0.005523 -0.022200 -0.999738
outer loop
vertex -0.204601 0.112352 0.480400
vertex -0.384156 0.156709 0.480397
vertex -0.200939 0.111988 0.480388
endloop
endfacet
facet normal -0.014913 -0.117807 -0.992924
outer loop
vertex -0.204601 0.112352 0.480400
vertex -0.200939 0.111988 0.480388
vertex -0.295910 -0.038699 0.499696
endloop
endfacet
facet normal -0.027266 -0.110434 -0.993509
outer loop
vertex -0.204601 0.112352 0.480400
vertex -0.295910 -0.038699 0.499696
vertex -0.384156 0.156709 0.480397
endloop
endfacet
facet normal -0.005031 0.001414 -0.999986
outer loop
vertex -0.225677 0.225193 0.479697
vertex -0.384156 0.156709 0.480397
vertex -0.381365 0.167311 0.480398
endloop
endfacet
facet normal 0.000000 -0.006105 -0.999981
outer loop
vertex -0.225677 0.225193 0.479697
vertex -0.200868 0.225193 0.479697
vertex -0.200939 0.111988 0.480388
endloop
endfacet
facet normal -0.001626 -0.006460 -0.999978
outer loop
vertex -0.225677 0.225193 0.479697
vertex -0.200939 0.111988 0.480388
vertex -0.384156 0.156709 0.480397
endloop
endfacet
facet normal 0.000000 0.946811 -0.321790
outer loop
vertex -0.225677 0.225193 0.479697
vertex -0.300105 0.236674 0.513477
vertex -0.200868 0.225193 0.479697
endloop
endfacet
facet normal -0.237874 0.630873 -0.738523
outer loop
vertex -0.225677 0.225193 0.479697
vertex -0.381365 0.167311 0.480398
vertex -0.300105 0.236674 0.513477
endloop
endfacet
facet normal -0.466266 -0.293003 -0.834713
outer loop
vertex -0.351504 0.032677 0.505696
vertex -0.384156 0.156709 0.480397
vertex -0.295910 -0.038699 0.499696
endloop
endfacet
facet normal -0.788925 -0.614489 0.000000
outer loop
vertex -0.351504 0.032677 0.505696
vertex -0.295910 -0.038699 0.499696
vertex -0.351504 0.032677 0.645695
endloop
endfacet
facet normal 0.020997 0.963780 -0.265871
outer loop
vertex -0.214226 0.234803 0.513477
vertex -0.200868 0.225193 0.479697
vertex -0.300105 0.236674 0.513477
endloop
endfacet
facet normal 0.583972 0.811774 -0.000001
outer loop
vertex -0.214226 0.234803 0.513477
vertex -0.200868 0.225193 0.499696
vertex -0.200868 0.225193 0.479697
endloop
endfacet
facet normal 0.585613 0.810587 0.002411
outer loop
vertex -0.214226 0.234803 0.513477
vertex -0.214341 0.234325 0.702115
vertex -0.200868 0.225193 0.499696
endloop
endfacet
facet normal 0.031136 0.999512 0.002552
outer loop
vertex -0.214226 0.234803 0.513477
vertex -0.225677 0.234674 0.703694
vertex -0.214341 0.234325 0.702115
endloop
endfacet
facet normal 0.021781 0.999763 0.000000
outer loop
vertex -0.214226 0.234803 0.513477
vertex -0.300105 0.236674 0.513477
vertex -0.300105 0.236674 0.695412
endloop
endfacet
facet normal 0.026608 0.999643 0.002280
outer loop
vertex -0.214226 0.234803 0.513477
vertex -0.300105 0.236674 0.695412
vertex -0.225677 0.234674 0.703694
endloop
endfacet
facet normal -0.968959 0.247219 -0.000949
outer loop
vertex -0.384189 0.156706 0.513476
vertex -0.381442 0.167473 0.513480
vertex -0.384156 0.156709 0.480397
endloop
endfacet
facet normal -0.970778 0.000000 0.239981
outer loop
vertex -0.384189 0.156706 0.513476
vertex -0.351504 0.032677 0.645695
vertex -0.351504 0.172675 0.645695
endloop
endfacet
facet normal -0.948355 0.241878 0.205225
outer loop
vertex -0.384189 0.156706 0.513476
vertex -0.351504 0.172675 0.645695
vertex -0.381442 0.167473 0.513480
endloop
endfacet
facet normal -0.966986 -0.254828 0.000000
outer loop
vertex -0.384189 0.156706 0.513476
vertex -0.351504 0.032677 0.505696
vertex -0.351504 0.032677 0.645695
endloop
endfacet
facet normal -0.967001 -0.254771 -0.000991
outer loop
vertex -0.384189 0.156706 0.513476
vertex -0.384156 0.156709 0.480397
vertex -0.351504 0.032677 0.505696
endloop
endfacet
endsolid /home/febert/Desktop/arm_base004
